G04 #@! TF.GenerationSoftware,KiCad,Pcbnew,9.0.2*
G04 #@! TF.CreationDate,2025-06-29T23:08:07-05:00*
G04 #@! TF.ProjectId,project-solder,70726f6a-6563-4742-9d73-6f6c6465722e,rev?*
G04 #@! TF.SameCoordinates,Original*
G04 #@! TF.FileFunction,Legend,Top*
G04 #@! TF.FilePolarity,Positive*
%FSLAX46Y46*%
G04 Gerber Fmt 4.6, Leading zero omitted, Abs format (unit mm)*
G04 Created by KiCad (PCBNEW 9.0.2) date 2025-06-29 23:08:07*
%MOMM*%
%LPD*%
G01*
G04 APERTURE LIST*
G04 Aperture macros list*
%AMRoundRect*
0 Rectangle with rounded corners*
0 $1 Rounding radius*
0 $2 $3 $4 $5 $6 $7 $8 $9 X,Y pos of 4 corners*
0 Add a 4 corners polygon primitive as box body*
4,1,4,$2,$3,$4,$5,$6,$7,$8,$9,$2,$3,0*
0 Add four circle primitives for the rounded corners*
1,1,$1+$1,$2,$3*
1,1,$1+$1,$4,$5*
1,1,$1+$1,$6,$7*
1,1,$1+$1,$8,$9*
0 Add four rect primitives between the rounded corners*
20,1,$1+$1,$2,$3,$4,$5,0*
20,1,$1+$1,$4,$5,$6,$7,0*
20,1,$1+$1,$6,$7,$8,$9,0*
20,1,$1+$1,$8,$9,$2,$3,0*%
G04 Aperture macros list end*
%ADD10C,0.150000*%
%ADD11C,0.300000*%
%ADD12C,0.120000*%
%ADD13C,0.000000*%
%ADD14C,1.440000*%
%ADD15R,1.800000X1.800000*%
%ADD16C,1.800000*%
%ADD17RoundRect,0.250000X-0.550000X-0.550000X0.550000X-0.550000X0.550000X0.550000X-0.550000X0.550000X0*%
%ADD18C,1.600000*%
%ADD19R,1.270000X5.080000*%
%ADD20C,17.800000*%
%ADD21C,2.000000*%
G04 APERTURE END LIST*
D10*
X216844761Y-95364819D02*
X216511428Y-94888628D01*
X216273333Y-95364819D02*
X216273333Y-94364819D01*
X216273333Y-94364819D02*
X216654285Y-94364819D01*
X216654285Y-94364819D02*
X216749523Y-94412438D01*
X216749523Y-94412438D02*
X216797142Y-94460057D01*
X216797142Y-94460057D02*
X216844761Y-94555295D01*
X216844761Y-94555295D02*
X216844761Y-94698152D01*
X216844761Y-94698152D02*
X216797142Y-94793390D01*
X216797142Y-94793390D02*
X216749523Y-94841009D01*
X216749523Y-94841009D02*
X216654285Y-94888628D01*
X216654285Y-94888628D02*
X216273333Y-94888628D01*
X217130476Y-94364819D02*
X217463809Y-95364819D01*
X217463809Y-95364819D02*
X217797142Y-94364819D01*
X218082857Y-94460057D02*
X218130476Y-94412438D01*
X218130476Y-94412438D02*
X218225714Y-94364819D01*
X218225714Y-94364819D02*
X218463809Y-94364819D01*
X218463809Y-94364819D02*
X218559047Y-94412438D01*
X218559047Y-94412438D02*
X218606666Y-94460057D01*
X218606666Y-94460057D02*
X218654285Y-94555295D01*
X218654285Y-94555295D02*
X218654285Y-94650533D01*
X218654285Y-94650533D02*
X218606666Y-94793390D01*
X218606666Y-94793390D02*
X218035238Y-95364819D01*
X218035238Y-95364819D02*
X218654285Y-95364819D01*
X149256905Y-76494819D02*
X149256905Y-75494819D01*
X149256905Y-75494819D02*
X149495000Y-75494819D01*
X149495000Y-75494819D02*
X149637857Y-75542438D01*
X149637857Y-75542438D02*
X149733095Y-75637676D01*
X149733095Y-75637676D02*
X149780714Y-75732914D01*
X149780714Y-75732914D02*
X149828333Y-75923390D01*
X149828333Y-75923390D02*
X149828333Y-76066247D01*
X149828333Y-76066247D02*
X149780714Y-76256723D01*
X149780714Y-76256723D02*
X149733095Y-76351961D01*
X149733095Y-76351961D02*
X149637857Y-76447200D01*
X149637857Y-76447200D02*
X149495000Y-76494819D01*
X149495000Y-76494819D02*
X149256905Y-76494819D01*
X150780714Y-76494819D02*
X150209286Y-76494819D01*
X150495000Y-76494819D02*
X150495000Y-75494819D01*
X150495000Y-75494819D02*
X150399762Y-75637676D01*
X150399762Y-75637676D02*
X150304524Y-75732914D01*
X150304524Y-75732914D02*
X150209286Y-75780533D01*
X204228031Y-95901505D02*
X204180412Y-95949125D01*
X204180412Y-95949125D02*
X204037555Y-95996744D01*
X204037555Y-95996744D02*
X203942317Y-95996744D01*
X203942317Y-95996744D02*
X203799460Y-95949125D01*
X203799460Y-95949125D02*
X203704222Y-95853886D01*
X203704222Y-95853886D02*
X203656603Y-95758648D01*
X203656603Y-95758648D02*
X203608984Y-95568172D01*
X203608984Y-95568172D02*
X203608984Y-95425315D01*
X203608984Y-95425315D02*
X203656603Y-95234839D01*
X203656603Y-95234839D02*
X203704222Y-95139601D01*
X203704222Y-95139601D02*
X203799460Y-95044363D01*
X203799460Y-95044363D02*
X203942317Y-94996744D01*
X203942317Y-94996744D02*
X204037555Y-94996744D01*
X204037555Y-94996744D02*
X204180412Y-95044363D01*
X204180412Y-95044363D02*
X204228031Y-95091982D01*
X205180412Y-95996744D02*
X204608984Y-95996744D01*
X204894698Y-95996744D02*
X204894698Y-94996744D01*
X204894698Y-94996744D02*
X204799460Y-95139601D01*
X204799460Y-95139601D02*
X204704222Y-95234839D01*
X204704222Y-95234839D02*
X204608984Y-95282458D01*
X188214285Y-65431009D02*
X188357142Y-65478628D01*
X188357142Y-65478628D02*
X188404761Y-65526247D01*
X188404761Y-65526247D02*
X188452380Y-65621485D01*
X188452380Y-65621485D02*
X188452380Y-65764342D01*
X188452380Y-65764342D02*
X188404761Y-65859580D01*
X188404761Y-65859580D02*
X188357142Y-65907200D01*
X188357142Y-65907200D02*
X188261904Y-65954819D01*
X188261904Y-65954819D02*
X187880952Y-65954819D01*
X187880952Y-65954819D02*
X187880952Y-64954819D01*
X187880952Y-64954819D02*
X188214285Y-64954819D01*
X188214285Y-64954819D02*
X188309523Y-65002438D01*
X188309523Y-65002438D02*
X188357142Y-65050057D01*
X188357142Y-65050057D02*
X188404761Y-65145295D01*
X188404761Y-65145295D02*
X188404761Y-65240533D01*
X188404761Y-65240533D02*
X188357142Y-65335771D01*
X188357142Y-65335771D02*
X188309523Y-65383390D01*
X188309523Y-65383390D02*
X188214285Y-65431009D01*
X188214285Y-65431009D02*
X187880952Y-65431009D01*
X188738095Y-64954819D02*
X189309523Y-64954819D01*
X189023809Y-65954819D02*
X189023809Y-64954819D01*
X190166666Y-65954819D02*
X189595238Y-65954819D01*
X189880952Y-65954819D02*
X189880952Y-64954819D01*
X189880952Y-64954819D02*
X189785714Y-65097676D01*
X189785714Y-65097676D02*
X189690476Y-65192914D01*
X189690476Y-65192914D02*
X189595238Y-65240533D01*
X189166667Y-96449125D02*
X189309524Y-96496744D01*
X189309524Y-96496744D02*
X189547619Y-96496744D01*
X189547619Y-96496744D02*
X189642857Y-96449125D01*
X189642857Y-96449125D02*
X189690476Y-96401505D01*
X189690476Y-96401505D02*
X189738095Y-96306267D01*
X189738095Y-96306267D02*
X189738095Y-96211029D01*
X189738095Y-96211029D02*
X189690476Y-96115791D01*
X189690476Y-96115791D02*
X189642857Y-96068172D01*
X189642857Y-96068172D02*
X189547619Y-96020553D01*
X189547619Y-96020553D02*
X189357143Y-95972934D01*
X189357143Y-95972934D02*
X189261905Y-95925315D01*
X189261905Y-95925315D02*
X189214286Y-95877696D01*
X189214286Y-95877696D02*
X189166667Y-95782458D01*
X189166667Y-95782458D02*
X189166667Y-95687220D01*
X189166667Y-95687220D02*
X189214286Y-95591982D01*
X189214286Y-95591982D02*
X189261905Y-95544363D01*
X189261905Y-95544363D02*
X189357143Y-95496744D01*
X189357143Y-95496744D02*
X189595238Y-95496744D01*
X189595238Y-95496744D02*
X189738095Y-95544363D01*
X190071429Y-95496744D02*
X190309524Y-96496744D01*
X190309524Y-96496744D02*
X190500000Y-95782458D01*
X190500000Y-95782458D02*
X190690476Y-96496744D01*
X190690476Y-96496744D02*
X190928572Y-95496744D01*
X191833333Y-96496744D02*
X191261905Y-96496744D01*
X191547619Y-96496744D02*
X191547619Y-95496744D01*
X191547619Y-95496744D02*
X191452381Y-95639601D01*
X191452381Y-95639601D02*
X191357143Y-95734839D01*
X191357143Y-95734839D02*
X191261905Y-95782458D01*
X173643333Y-98634819D02*
X173310000Y-98158628D01*
X173071905Y-98634819D02*
X173071905Y-97634819D01*
X173071905Y-97634819D02*
X173452857Y-97634819D01*
X173452857Y-97634819D02*
X173548095Y-97682438D01*
X173548095Y-97682438D02*
X173595714Y-97730057D01*
X173595714Y-97730057D02*
X173643333Y-97825295D01*
X173643333Y-97825295D02*
X173643333Y-97968152D01*
X173643333Y-97968152D02*
X173595714Y-98063390D01*
X173595714Y-98063390D02*
X173548095Y-98111009D01*
X173548095Y-98111009D02*
X173452857Y-98158628D01*
X173452857Y-98158628D02*
X173071905Y-98158628D01*
X174024286Y-97730057D02*
X174071905Y-97682438D01*
X174071905Y-97682438D02*
X174167143Y-97634819D01*
X174167143Y-97634819D02*
X174405238Y-97634819D01*
X174405238Y-97634819D02*
X174500476Y-97682438D01*
X174500476Y-97682438D02*
X174548095Y-97730057D01*
X174548095Y-97730057D02*
X174595714Y-97825295D01*
X174595714Y-97825295D02*
X174595714Y-97920533D01*
X174595714Y-97920533D02*
X174548095Y-98063390D01*
X174548095Y-98063390D02*
X173976667Y-98634819D01*
X173976667Y-98634819D02*
X174595714Y-98634819D01*
X231991905Y-78994819D02*
X231991905Y-77994819D01*
X231991905Y-77994819D02*
X232230000Y-77994819D01*
X232230000Y-77994819D02*
X232372857Y-78042438D01*
X232372857Y-78042438D02*
X232468095Y-78137676D01*
X232468095Y-78137676D02*
X232515714Y-78232914D01*
X232515714Y-78232914D02*
X232563333Y-78423390D01*
X232563333Y-78423390D02*
X232563333Y-78566247D01*
X232563333Y-78566247D02*
X232515714Y-78756723D01*
X232515714Y-78756723D02*
X232468095Y-78851961D01*
X232468095Y-78851961D02*
X232372857Y-78947200D01*
X232372857Y-78947200D02*
X232230000Y-78994819D01*
X232230000Y-78994819D02*
X231991905Y-78994819D01*
X232896667Y-77994819D02*
X233515714Y-77994819D01*
X233515714Y-77994819D02*
X233182381Y-78375771D01*
X233182381Y-78375771D02*
X233325238Y-78375771D01*
X233325238Y-78375771D02*
X233420476Y-78423390D01*
X233420476Y-78423390D02*
X233468095Y-78471009D01*
X233468095Y-78471009D02*
X233515714Y-78566247D01*
X233515714Y-78566247D02*
X233515714Y-78804342D01*
X233515714Y-78804342D02*
X233468095Y-78899580D01*
X233468095Y-78899580D02*
X233420476Y-78947200D01*
X233420476Y-78947200D02*
X233325238Y-78994819D01*
X233325238Y-78994819D02*
X233039524Y-78994819D01*
X233039524Y-78994819D02*
X232944286Y-78947200D01*
X232944286Y-78947200D02*
X232896667Y-78899580D01*
X156256905Y-86494819D02*
X156256905Y-85494819D01*
X156256905Y-85494819D02*
X156495000Y-85494819D01*
X156495000Y-85494819D02*
X156637857Y-85542438D01*
X156637857Y-85542438D02*
X156733095Y-85637676D01*
X156733095Y-85637676D02*
X156780714Y-85732914D01*
X156780714Y-85732914D02*
X156828333Y-85923390D01*
X156828333Y-85923390D02*
X156828333Y-86066247D01*
X156828333Y-86066247D02*
X156780714Y-86256723D01*
X156780714Y-86256723D02*
X156733095Y-86351961D01*
X156733095Y-86351961D02*
X156637857Y-86447200D01*
X156637857Y-86447200D02*
X156495000Y-86494819D01*
X156495000Y-86494819D02*
X156256905Y-86494819D01*
X157209286Y-85590057D02*
X157256905Y-85542438D01*
X157256905Y-85542438D02*
X157352143Y-85494819D01*
X157352143Y-85494819D02*
X157590238Y-85494819D01*
X157590238Y-85494819D02*
X157685476Y-85542438D01*
X157685476Y-85542438D02*
X157733095Y-85590057D01*
X157733095Y-85590057D02*
X157780714Y-85685295D01*
X157780714Y-85685295D02*
X157780714Y-85780533D01*
X157780714Y-85780533D02*
X157733095Y-85923390D01*
X157733095Y-85923390D02*
X157161667Y-86494819D01*
X157161667Y-86494819D02*
X157780714Y-86494819D01*
D11*
D10*
X173643333Y-102684819D02*
X173310000Y-102208628D01*
X173071905Y-102684819D02*
X173071905Y-101684819D01*
X173071905Y-101684819D02*
X173452857Y-101684819D01*
X173452857Y-101684819D02*
X173548095Y-101732438D01*
X173548095Y-101732438D02*
X173595714Y-101780057D01*
X173595714Y-101780057D02*
X173643333Y-101875295D01*
X173643333Y-101875295D02*
X173643333Y-102018152D01*
X173643333Y-102018152D02*
X173595714Y-102113390D01*
X173595714Y-102113390D02*
X173548095Y-102161009D01*
X173548095Y-102161009D02*
X173452857Y-102208628D01*
X173452857Y-102208628D02*
X173071905Y-102208628D01*
X173976667Y-101684819D02*
X174595714Y-101684819D01*
X174595714Y-101684819D02*
X174262381Y-102065771D01*
X174262381Y-102065771D02*
X174405238Y-102065771D01*
X174405238Y-102065771D02*
X174500476Y-102113390D01*
X174500476Y-102113390D02*
X174548095Y-102161009D01*
X174548095Y-102161009D02*
X174595714Y-102256247D01*
X174595714Y-102256247D02*
X174595714Y-102494342D01*
X174595714Y-102494342D02*
X174548095Y-102589580D01*
X174548095Y-102589580D02*
X174500476Y-102637200D01*
X174500476Y-102637200D02*
X174405238Y-102684819D01*
X174405238Y-102684819D02*
X174119524Y-102684819D01*
X174119524Y-102684819D02*
X174024286Y-102637200D01*
X174024286Y-102637200D02*
X173976667Y-102589580D01*
X173643333Y-94584819D02*
X173310000Y-94108628D01*
X173071905Y-94584819D02*
X173071905Y-93584819D01*
X173071905Y-93584819D02*
X173452857Y-93584819D01*
X173452857Y-93584819D02*
X173548095Y-93632438D01*
X173548095Y-93632438D02*
X173595714Y-93680057D01*
X173595714Y-93680057D02*
X173643333Y-93775295D01*
X173643333Y-93775295D02*
X173643333Y-93918152D01*
X173643333Y-93918152D02*
X173595714Y-94013390D01*
X173595714Y-94013390D02*
X173548095Y-94061009D01*
X173548095Y-94061009D02*
X173452857Y-94108628D01*
X173452857Y-94108628D02*
X173071905Y-94108628D01*
X174595714Y-94584819D02*
X174024286Y-94584819D01*
X174310000Y-94584819D02*
X174310000Y-93584819D01*
X174310000Y-93584819D02*
X174214762Y-93727676D01*
X174214762Y-93727676D02*
X174119524Y-93822914D01*
X174119524Y-93822914D02*
X174024286Y-93870533D01*
X226756905Y-89494819D02*
X226756905Y-88494819D01*
X226756905Y-88494819D02*
X226995000Y-88494819D01*
X226995000Y-88494819D02*
X227137857Y-88542438D01*
X227137857Y-88542438D02*
X227233095Y-88637676D01*
X227233095Y-88637676D02*
X227280714Y-88732914D01*
X227280714Y-88732914D02*
X227328333Y-88923390D01*
X227328333Y-88923390D02*
X227328333Y-89066247D01*
X227328333Y-89066247D02*
X227280714Y-89256723D01*
X227280714Y-89256723D02*
X227233095Y-89351961D01*
X227233095Y-89351961D02*
X227137857Y-89447200D01*
X227137857Y-89447200D02*
X226995000Y-89494819D01*
X226995000Y-89494819D02*
X226756905Y-89494819D01*
X228185476Y-88828152D02*
X228185476Y-89494819D01*
X227947381Y-88447200D02*
X227709286Y-89161485D01*
X227709286Y-89161485D02*
X228328333Y-89161485D01*
D12*
G04 #@! TO.C,RV2*
X213830000Y-96050000D02*
X213830000Y-102870000D01*
X213830000Y-96050000D02*
X217118000Y-96050000D01*
X213830000Y-102870000D02*
X217118000Y-102870000D01*
X217882000Y-96050000D02*
X221050000Y-96050000D01*
X217882000Y-102870000D02*
X221050000Y-102870000D01*
X221050000Y-96050000D02*
X221050000Y-102870000D01*
G04 #@! TO.C,D1*
X147435000Y-78455000D02*
X147435000Y-81545000D01*
X147435000Y-78455170D02*
G75*
G02*
X152985000Y-80000000I2560000J-1544830D01*
G01*
X152985000Y-80000000D02*
G75*
G02*
X147435000Y-81544830I-2990000J0D01*
G01*
X152495000Y-80000000D02*
G75*
G02*
X147495000Y-80000000I-2500000J0D01*
G01*
X147495000Y-80000000D02*
G75*
G02*
X152495000Y-80000000I2500000J0D01*
G01*
G04 #@! TO.C,C1*
X199985000Y-98476925D02*
X200785000Y-98476925D01*
X200385000Y-98076925D02*
X200385000Y-98876925D01*
X204394698Y-96711925D02*
X204394698Y-104871925D01*
X204434698Y-96711925D02*
X204434698Y-104871925D01*
X204474698Y-96712925D02*
X204474698Y-104870925D01*
X204514698Y-96713925D02*
X204514698Y-104869925D01*
X204554698Y-96714925D02*
X204554698Y-104868925D01*
X204594698Y-96716925D02*
X204594698Y-104866925D01*
X204634698Y-96718925D02*
X204634698Y-104864925D01*
X204674698Y-96721925D02*
X204674698Y-104861925D01*
X204714698Y-96723925D02*
X204714698Y-104859925D01*
X204754698Y-96727925D02*
X204754698Y-104855925D01*
X204794698Y-96730925D02*
X204794698Y-104852925D01*
X204834698Y-96735925D02*
X204834698Y-104847925D01*
X204874698Y-96739925D02*
X204874698Y-104843925D01*
X204914698Y-96744925D02*
X204914698Y-104838925D01*
X204954698Y-96749925D02*
X204954698Y-104833925D01*
X204994698Y-96755925D02*
X204994698Y-104827925D01*
X205034698Y-96761925D02*
X205034698Y-104821925D01*
X205074698Y-96768925D02*
X205074698Y-104814925D01*
X205114698Y-96774925D02*
X205114698Y-104808925D01*
X205154698Y-96782925D02*
X205154698Y-104800925D01*
X205194698Y-96789925D02*
X205194698Y-104793925D01*
X205234698Y-96798925D02*
X205234698Y-104784925D01*
X205274698Y-96806925D02*
X205274698Y-104776925D01*
X205314698Y-96815925D02*
X205314698Y-104767925D01*
X205354698Y-96824925D02*
X205354698Y-104758925D01*
X205394698Y-96834925D02*
X205394698Y-104748925D01*
X205434698Y-96844925D02*
X205434698Y-104738925D01*
X205474698Y-96855925D02*
X205474698Y-104727925D01*
X205514698Y-96866925D02*
X205514698Y-104716925D01*
X205554698Y-96878925D02*
X205554698Y-104704925D01*
X205594698Y-96890925D02*
X205594698Y-104692925D01*
X205634698Y-96902925D02*
X205634698Y-104680925D01*
X205674698Y-96915925D02*
X205674698Y-104667925D01*
X205714698Y-96928925D02*
X205714698Y-104654925D01*
X205754698Y-96942925D02*
X205754698Y-104640925D01*
X205794698Y-96956925D02*
X205794698Y-104626925D01*
X205834698Y-96971925D02*
X205834698Y-104611925D01*
X205874698Y-96986925D02*
X205874698Y-99751925D01*
X205874698Y-101831925D02*
X205874698Y-104596925D01*
X205914698Y-97002925D02*
X205914698Y-99751925D01*
X205914698Y-101831925D02*
X205914698Y-104580925D01*
X205954698Y-97018925D02*
X205954698Y-99751925D01*
X205954698Y-101831925D02*
X205954698Y-104564925D01*
X205994698Y-97034925D02*
X205994698Y-99751925D01*
X205994698Y-101831925D02*
X205994698Y-104548925D01*
X206034698Y-97051925D02*
X206034698Y-99751925D01*
X206034698Y-101831925D02*
X206034698Y-104531925D01*
X206074698Y-97069925D02*
X206074698Y-99751925D01*
X206074698Y-101831925D02*
X206074698Y-104513925D01*
X206114698Y-97087925D02*
X206114698Y-99751925D01*
X206114698Y-101831925D02*
X206114698Y-104495925D01*
X206154698Y-97106925D02*
X206154698Y-99751925D01*
X206154698Y-101831925D02*
X206154698Y-104476925D01*
X206194698Y-97125925D02*
X206194698Y-99751925D01*
X206194698Y-101831925D02*
X206194698Y-104457925D01*
X206234698Y-97145925D02*
X206234698Y-99751925D01*
X206234698Y-101831925D02*
X206234698Y-104437925D01*
X206274698Y-97165925D02*
X206274698Y-99751925D01*
X206274698Y-101831925D02*
X206274698Y-104417925D01*
X206314698Y-97186925D02*
X206314698Y-99751925D01*
X206314698Y-101831925D02*
X206314698Y-104396925D01*
X206354698Y-97207925D02*
X206354698Y-99751925D01*
X206354698Y-101831925D02*
X206354698Y-104375925D01*
X206394698Y-97229925D02*
X206394698Y-99751925D01*
X206394698Y-101831925D02*
X206394698Y-104353925D01*
X206434698Y-97252925D02*
X206434698Y-99751925D01*
X206434698Y-101831925D02*
X206434698Y-104330925D01*
X206474698Y-97275925D02*
X206474698Y-99751925D01*
X206474698Y-101831925D02*
X206474698Y-104307925D01*
X206514698Y-97298925D02*
X206514698Y-99751925D01*
X206514698Y-101831925D02*
X206514698Y-104284925D01*
X206554698Y-97323925D02*
X206554698Y-99751925D01*
X206554698Y-101831925D02*
X206554698Y-104259925D01*
X206594698Y-97348925D02*
X206594698Y-99751925D01*
X206594698Y-101831925D02*
X206594698Y-104234925D01*
X206634698Y-97373925D02*
X206634698Y-99751925D01*
X206634698Y-101831925D02*
X206634698Y-104209925D01*
X206674698Y-97399925D02*
X206674698Y-99751925D01*
X206674698Y-101831925D02*
X206674698Y-104183925D01*
X206714698Y-97426925D02*
X206714698Y-99751925D01*
X206714698Y-101831925D02*
X206714698Y-104156925D01*
X206754698Y-97454925D02*
X206754698Y-99751925D01*
X206754698Y-101831925D02*
X206754698Y-104128925D01*
X206794698Y-97482925D02*
X206794698Y-99751925D01*
X206794698Y-101831925D02*
X206794698Y-104100925D01*
X206834698Y-97511925D02*
X206834698Y-99751925D01*
X206834698Y-101831925D02*
X206834698Y-104071925D01*
X206874698Y-97541925D02*
X206874698Y-99751925D01*
X206874698Y-101831925D02*
X206874698Y-104041925D01*
X206914698Y-97572925D02*
X206914698Y-99751925D01*
X206914698Y-101831925D02*
X206914698Y-104010925D01*
X206954698Y-97603925D02*
X206954698Y-99751925D01*
X206954698Y-101831925D02*
X206954698Y-103979925D01*
X206994698Y-97635925D02*
X206994698Y-99751925D01*
X206994698Y-101831925D02*
X206994698Y-103947925D01*
X207034698Y-97668925D02*
X207034698Y-99751925D01*
X207034698Y-101831925D02*
X207034698Y-103914925D01*
X207074698Y-97702925D02*
X207074698Y-99751925D01*
X207074698Y-101831925D02*
X207074698Y-103880925D01*
X207114698Y-97736925D02*
X207114698Y-99751925D01*
X207114698Y-101831925D02*
X207114698Y-103846925D01*
X207154698Y-97772925D02*
X207154698Y-99751925D01*
X207154698Y-101831925D02*
X207154698Y-103810925D01*
X207194698Y-97809925D02*
X207194698Y-99751925D01*
X207194698Y-101831925D02*
X207194698Y-103773925D01*
X207234698Y-97846925D02*
X207234698Y-99751925D01*
X207234698Y-101831925D02*
X207234698Y-103736925D01*
X207274698Y-97885925D02*
X207274698Y-99751925D01*
X207274698Y-101831925D02*
X207274698Y-103697925D01*
X207314698Y-97924925D02*
X207314698Y-99751925D01*
X207314698Y-101831925D02*
X207314698Y-103658925D01*
X207354698Y-97965925D02*
X207354698Y-99751925D01*
X207354698Y-101831925D02*
X207354698Y-103617925D01*
X207394698Y-98007925D02*
X207394698Y-99751925D01*
X207394698Y-101831925D02*
X207394698Y-103575925D01*
X207434698Y-98050925D02*
X207434698Y-99751925D01*
X207434698Y-101831925D02*
X207434698Y-103532925D01*
X207474698Y-98095925D02*
X207474698Y-99751925D01*
X207474698Y-101831925D02*
X207474698Y-103487925D01*
X207514698Y-98140925D02*
X207514698Y-99751925D01*
X207514698Y-101831925D02*
X207514698Y-103442925D01*
X207554698Y-98187925D02*
X207554698Y-99751925D01*
X207554698Y-101831925D02*
X207554698Y-103395925D01*
X207594698Y-98236925D02*
X207594698Y-99751925D01*
X207594698Y-101831925D02*
X207594698Y-103346925D01*
X207634698Y-98286925D02*
X207634698Y-99751925D01*
X207634698Y-101831925D02*
X207634698Y-103296925D01*
X207674698Y-98338925D02*
X207674698Y-99751925D01*
X207674698Y-101831925D02*
X207674698Y-103244925D01*
X207714698Y-98391925D02*
X207714698Y-99751925D01*
X207714698Y-101831925D02*
X207714698Y-103191925D01*
X207754698Y-98447925D02*
X207754698Y-99751925D01*
X207754698Y-101831925D02*
X207754698Y-103135925D01*
X207794698Y-98504925D02*
X207794698Y-99751925D01*
X207794698Y-101831925D02*
X207794698Y-103078925D01*
X207834698Y-98564925D02*
X207834698Y-99751925D01*
X207834698Y-101831925D02*
X207834698Y-103018925D01*
X207874698Y-98626925D02*
X207874698Y-99751925D01*
X207874698Y-101831925D02*
X207874698Y-102956925D01*
X207914698Y-98690925D02*
X207914698Y-99751925D01*
X207914698Y-101831925D02*
X207914698Y-102892925D01*
X207954698Y-98757925D02*
X207954698Y-102825925D01*
X207994698Y-98827925D02*
X207994698Y-102755925D01*
X208034698Y-98901925D02*
X208034698Y-102681925D01*
X208074698Y-98978925D02*
X208074698Y-102604925D01*
X208114698Y-99060925D02*
X208114698Y-102522925D01*
X208154698Y-99147925D02*
X208154698Y-102435925D01*
X208194698Y-99239925D02*
X208194698Y-102343925D01*
X208234698Y-99338925D02*
X208234698Y-102244925D01*
X208274698Y-99445925D02*
X208274698Y-102137925D01*
X208314698Y-99563925D02*
X208314698Y-102019925D01*
X208354698Y-99694925D02*
X208354698Y-101888925D01*
X208394698Y-99844925D02*
X208394698Y-101738925D01*
X208434698Y-100023925D02*
X208434698Y-101559925D01*
X208474698Y-100258925D02*
X208474698Y-101324925D01*
X208514698Y-100791925D02*
G75*
G02*
X200274698Y-100791925I-4120000J0D01*
G01*
X200274698Y-100791925D02*
G75*
G02*
X208514698Y-100791925I4120000J0D01*
G01*
G04 #@! TO.C,BT1*
X178220000Y-71540000D02*
X178220000Y-74000000D01*
X178220000Y-80000000D02*
X178220000Y-80630000D01*
X178220000Y-80630000D02*
X179660000Y-84580000D01*
X180300000Y-69460000D02*
X178220000Y-71540000D01*
X183800000Y-69460000D02*
X180300000Y-69460000D01*
X197700000Y-69460000D02*
X194200000Y-69460000D01*
X197700000Y-69460000D02*
X199780000Y-71540000D01*
X199780000Y-71540000D02*
X199780000Y-74000000D01*
X199780000Y-80000000D02*
X199780000Y-80630000D01*
X199780000Y-80630000D02*
X198340000Y-84580000D01*
X182996646Y-85566530D02*
G75*
G02*
X179660000Y-84580000I-1306646J1716531D01*
G01*
X198325243Y-84588169D02*
G75*
G02*
X195000000Y-85550000I-2015243J738169D01*
G01*
G04 #@! TO.C,SW1*
X187000000Y-99541925D02*
X187000000Y-101041925D01*
X188250000Y-103541925D02*
X192750000Y-103541925D01*
X192750000Y-97041925D02*
X188250000Y-97041925D01*
X194000000Y-101041925D02*
X194000000Y-99541925D01*
G04 #@! TO.C,R2*
X170540000Y-99180000D02*
X177080000Y-99180000D01*
X170540000Y-99510000D02*
X170540000Y-99180000D01*
X170540000Y-101590000D02*
X170540000Y-101920000D01*
X170540000Y-101920000D02*
X177080000Y-101920000D01*
X177080000Y-99180000D02*
X177080000Y-99510000D01*
X177080000Y-101920000D02*
X177080000Y-101590000D01*
G04 #@! TO.C,D3*
X230170000Y-80955000D02*
X230170000Y-84045000D01*
X230170000Y-80955170D02*
G75*
G02*
X235720000Y-82500000I2560000J-1544830D01*
G01*
X235720000Y-82500000D02*
G75*
G02*
X230170000Y-84044830I-2990000J0D01*
G01*
X235230000Y-82500000D02*
G75*
G02*
X230230000Y-82500000I-2500000J0D01*
G01*
X230230000Y-82500000D02*
G75*
G02*
X235230000Y-82500000I2500000J0D01*
G01*
G04 #@! TO.C,D2*
X154435000Y-88455000D02*
X154435000Y-91545000D01*
X154435000Y-88455170D02*
G75*
G02*
X159985000Y-90000000I2560000J-1544830D01*
G01*
X159985000Y-90000000D02*
G75*
G02*
X154435000Y-91544830I-2990000J0D01*
G01*
X159495000Y-90000000D02*
G75*
G02*
X154495000Y-90000000I-2500000J0D01*
G01*
X154495000Y-90000000D02*
G75*
G02*
X159495000Y-90000000I2500000J0D01*
G01*
D13*
G04 #@! TO.C,  *
G36*
X179086452Y-68672029D02*
G01*
X179145640Y-68702425D01*
X179166844Y-68744435D01*
X179153610Y-68787961D01*
X179109485Y-68822906D01*
X179038016Y-68839173D01*
X179027665Y-68839391D01*
X178971095Y-68836619D01*
X178949113Y-68820897D01*
X178949477Y-68781110D01*
X178951072Y-68769849D01*
X178973613Y-68698054D01*
X179017202Y-68666682D01*
X179086452Y-68672029D01*
G37*
G36*
X179064608Y-68403869D02*
G01*
X179079197Y-68406985D01*
X179136435Y-68425619D01*
X179170943Y-68448165D01*
X179171739Y-68449318D01*
X179171593Y-68485848D01*
X179140539Y-68524431D01*
X179092074Y-68552145D01*
X179057992Y-68558210D01*
X179020998Y-68551569D01*
X179005655Y-68522675D01*
X179003044Y-68474337D01*
X179005583Y-68419209D01*
X179021802Y-68399525D01*
X179064608Y-68403869D01*
G37*
G36*
X175861657Y-66843598D02*
G01*
X175862806Y-66852727D01*
X175850936Y-66893362D01*
X175822300Y-66952129D01*
X175786354Y-67012730D01*
X175752555Y-67058866D01*
X175734317Y-67074167D01*
X175700568Y-67067455D01*
X175649396Y-67041066D01*
X175643400Y-67037201D01*
X175575914Y-66992720D01*
X175666831Y-66935616D01*
X175757668Y-66879804D01*
X175816158Y-66847665D01*
X175848691Y-66836498D01*
X175861657Y-66843598D01*
G37*
G36*
X173064287Y-64437391D02*
G01*
X173076008Y-64451120D01*
X173084689Y-64481759D01*
X173091183Y-64535654D01*
X173096342Y-64619151D01*
X173101019Y-64738596D01*
X173104558Y-64850138D01*
X173112511Y-65047664D01*
X173124927Y-65209268D01*
X173144598Y-65345858D01*
X173174315Y-65468347D01*
X173216868Y-65587644D01*
X173275049Y-65714659D01*
X173351648Y-65860304D01*
X173372787Y-65898708D01*
X173459077Y-66057917D01*
X173526909Y-66191875D01*
X173583000Y-66314859D01*
X173634072Y-66441143D01*
X173657306Y-66503120D01*
X173667515Y-66509828D01*
X173690247Y-66500957D01*
X173728656Y-66473787D01*
X173785893Y-66425600D01*
X173865110Y-66353676D01*
X173969461Y-66255293D01*
X174102097Y-66127734D01*
X174180114Y-66052059D01*
X174323979Y-65912359D01*
X174438508Y-65801901D01*
X174527954Y-65717251D01*
X174596575Y-65654975D01*
X174648625Y-65611640D01*
X174688360Y-65583811D01*
X174720036Y-65568055D01*
X174747908Y-65560938D01*
X174776231Y-65559025D01*
X174791226Y-65558948D01*
X174927561Y-65572184D01*
X175089941Y-65609558D01*
X175266563Y-65667573D01*
X175445625Y-65742729D01*
X175500000Y-65769069D01*
X175618511Y-65831291D01*
X175731522Y-65897348D01*
X175842986Y-65970631D01*
X175956859Y-66054536D01*
X176077095Y-66152455D01*
X176207649Y-66267782D01*
X176352476Y-66403910D01*
X176515530Y-66564233D01*
X176700766Y-66752144D01*
X176912139Y-66971037D01*
X176964483Y-67025720D01*
X177179512Y-67236312D01*
X177391102Y-67412115D01*
X177611729Y-67562417D01*
X177853872Y-67696507D01*
X177889030Y-67713942D01*
X178247031Y-67867829D01*
X178616113Y-67983209D01*
X179001471Y-68061126D01*
X179408295Y-68102627D01*
X179841777Y-68108759D01*
X179848009Y-68108600D01*
X179976877Y-68106334D01*
X180086639Y-68106491D01*
X180169967Y-68108887D01*
X180219535Y-68113339D01*
X180230032Y-68118149D01*
X180208121Y-68139439D01*
X180156671Y-68183884D01*
X180082824Y-68245467D01*
X179993716Y-68318170D01*
X179970795Y-68336651D01*
X179723800Y-68535347D01*
X179943357Y-68637843D01*
X180047259Y-68685893D01*
X180145880Y-68730710D01*
X180224736Y-68765749D01*
X180254933Y-68778687D01*
X180309526Y-68807518D01*
X180328304Y-68831623D01*
X180325228Y-68837770D01*
X180284389Y-68859865D01*
X180204092Y-68888992D01*
X180090938Y-68923556D01*
X179951530Y-68961962D01*
X179792473Y-69002617D01*
X179620369Y-69043926D01*
X179441822Y-69084294D01*
X179263434Y-69122128D01*
X179091809Y-69155833D01*
X178933551Y-69183814D01*
X178820642Y-69201056D01*
X178690047Y-69214890D01*
X178530486Y-69225185D01*
X178353806Y-69231808D01*
X178171855Y-69234624D01*
X177996479Y-69233497D01*
X177839526Y-69228291D01*
X177712843Y-69218874D01*
X177674816Y-69214120D01*
X177467886Y-69169042D01*
X177238653Y-69090580D01*
X176983647Y-68977507D01*
X176931075Y-68951548D01*
X176743080Y-68854892D01*
X176582747Y-68766985D01*
X177725053Y-68766985D01*
X177731345Y-68795446D01*
X177732143Y-68796313D01*
X177770603Y-68816838D01*
X177839839Y-68839967D01*
X177924237Y-68861642D01*
X178008188Y-68877799D01*
X178070250Y-68884261D01*
X178122950Y-68876664D01*
X178149983Y-68859268D01*
X178148138Y-68825543D01*
X178107496Y-68793205D01*
X178035960Y-68767498D01*
X178000847Y-68760311D01*
X177931798Y-68746786D01*
X177894544Y-68730160D01*
X178277884Y-68730160D01*
X178287149Y-68770504D01*
X178308514Y-68803072D01*
X178341783Y-68837823D01*
X178423092Y-68896551D01*
X178501991Y-68909093D01*
X178576386Y-68875431D01*
X178583821Y-68868103D01*
X178845022Y-68868103D01*
X178851540Y-68896935D01*
X178864780Y-68911619D01*
X178921422Y-68928435D01*
X179002792Y-68931775D01*
X179089000Y-68922486D01*
X179160152Y-68901412D01*
X179165390Y-68898837D01*
X179216894Y-68863117D01*
X179246238Y-68826625D01*
X179259443Y-68761638D01*
X179257212Y-68692724D01*
X179240738Y-68642265D01*
X179236119Y-68636636D01*
X179227855Y-68602286D01*
X179252189Y-68543202D01*
X179258742Y-68531801D01*
X179291937Y-68447251D01*
X179282087Y-68380063D01*
X179229434Y-68331299D01*
X179211310Y-68322807D01*
X179155415Y-68310321D01*
X179080101Y-68305911D01*
X179003074Y-68309087D01*
X178942042Y-68319365D01*
X178917951Y-68330880D01*
X178910119Y-68357717D01*
X178898112Y-68421422D01*
X178883588Y-68512364D01*
X178868714Y-68617101D01*
X178853500Y-68736264D01*
X178845639Y-68817239D01*
X178845022Y-68868103D01*
X178583821Y-68868103D01*
X178612213Y-68840118D01*
X178671491Y-68744523D01*
X178718608Y-68620336D01*
X178747696Y-68485404D01*
X178754005Y-68408845D01*
X178753525Y-68337584D01*
X178744724Y-68301591D01*
X178723523Y-68289466D01*
X178711024Y-68288745D01*
X178672917Y-68305282D01*
X178646978Y-68359881D01*
X178644030Y-68370756D01*
X178601425Y-68528026D01*
X178564094Y-68643438D01*
X178529687Y-68721374D01*
X178495857Y-68766217D01*
X178460258Y-68782348D01*
X178426608Y-68776664D01*
X178410334Y-68763683D01*
X178400640Y-68735661D01*
X178397594Y-68686487D01*
X178401264Y-68610047D01*
X178411719Y-68500228D01*
X178429027Y-68350918D01*
X178431606Y-68329750D01*
X178438780Y-68258256D01*
X178435536Y-68221590D01*
X178418732Y-68208286D01*
X178397902Y-68206734D01*
X178361242Y-68222412D01*
X178332117Y-68271884D01*
X178309396Y-68358804D01*
X178291950Y-68486828D01*
X178284334Y-68574216D01*
X178277888Y-68669059D01*
X178277884Y-68730160D01*
X177894544Y-68730160D01*
X177890564Y-68728384D01*
X177874493Y-68696281D01*
X177880932Y-68641658D01*
X177907230Y-68555691D01*
X177924341Y-68505859D01*
X177965868Y-68372180D01*
X177992002Y-68257885D01*
X178001881Y-68169393D01*
X177994640Y-68113122D01*
X177979399Y-68096503D01*
X177951157Y-68101468D01*
X177920361Y-68138175D01*
X177885331Y-68210113D01*
X177844385Y-68320774D01*
X177795843Y-68473649D01*
X177792622Y-68484343D01*
X177754780Y-68616136D01*
X177732561Y-68708783D01*
X177725053Y-68766985D01*
X176582747Y-68766985D01*
X176571074Y-68760585D01*
X176408682Y-68664182D01*
X176249529Y-68561240D01*
X176128747Y-68476453D01*
X177221830Y-68476453D01*
X177233712Y-68584083D01*
X177274926Y-68667946D01*
X177344676Y-68721153D01*
X177347756Y-68722429D01*
X177429155Y-68742111D01*
X177502594Y-68737440D01*
X177550029Y-68710814D01*
X177568440Y-68661813D01*
X177549653Y-68621001D01*
X177504148Y-68605073D01*
X177453433Y-68589162D01*
X177406768Y-68555292D01*
X177376852Y-68516861D01*
X177365755Y-68470818D01*
X177369614Y-68399202D01*
X177370867Y-68388306D01*
X177399114Y-68265353D01*
X177453517Y-68174968D01*
X177516327Y-68121783D01*
X177559733Y-68097743D01*
X177591186Y-68102051D01*
X177631424Y-68135628D01*
X177683045Y-68169064D01*
X177719392Y-68166275D01*
X177737020Y-68136382D01*
X177732482Y-68088506D01*
X177702331Y-68031768D01*
X177680216Y-68006499D01*
X177607353Y-67960101D01*
X177529314Y-67957879D01*
X177449580Y-67997955D01*
X177371637Y-68078449D01*
X177298967Y-68197480D01*
X177289257Y-68217442D01*
X177240079Y-68351944D01*
X177221830Y-68476453D01*
X176128747Y-68476453D01*
X176087240Y-68447316D01*
X175915441Y-68317964D01*
X175727757Y-68168742D01*
X175540132Y-68013654D01*
X176191236Y-68013654D01*
X176209074Y-68047635D01*
X176256486Y-68057322D01*
X176324324Y-68044812D01*
X176403435Y-68012202D01*
X176484669Y-67961589D01*
X176511666Y-67940215D01*
X176566486Y-67902372D01*
X176598493Y-67899137D01*
X176601630Y-67902670D01*
X176604281Y-67936285D01*
X176597098Y-68002230D01*
X176581621Y-68087369D01*
X176578088Y-68103652D01*
X176558806Y-68199183D01*
X176552336Y-68260424D01*
X176558175Y-68298016D01*
X176568084Y-68314515D01*
X176615950Y-68341998D01*
X176670461Y-68331876D01*
X176716438Y-68288017D01*
X176723578Y-68274904D01*
X176740563Y-68220626D01*
X176756665Y-68137968D01*
X176767844Y-68049924D01*
X176783112Y-67885649D01*
X176922055Y-67821873D01*
X177018626Y-67770443D01*
X177070058Y-67725022D01*
X177077502Y-67684325D01*
X177063664Y-67663885D01*
X177028416Y-67656982D01*
X176960427Y-67665418D01*
X176870413Y-67686995D01*
X176769093Y-67719519D01*
X176740689Y-67730083D01*
X176725622Y-67726906D01*
X176734556Y-67694130D01*
X176768758Y-67627560D01*
X176774968Y-67616486D01*
X176828901Y-67501373D01*
X176845249Y-67413389D01*
X176824110Y-67351801D01*
X176811737Y-67339395D01*
X176774787Y-67326625D01*
X176733010Y-67349303D01*
X176683330Y-67410367D01*
X176622667Y-67512752D01*
X176614923Y-67527165D01*
X176538675Y-67641670D01*
X176428853Y-67765955D01*
X176366323Y-67826423D01*
X176292808Y-67896570D01*
X176234496Y-67956794D01*
X176198803Y-67999164D01*
X176191236Y-68013654D01*
X175540132Y-68013654D01*
X175517812Y-67995205D01*
X175324707Y-67831756D01*
X175070626Y-67617070D01*
X175853089Y-67617070D01*
X175855471Y-67695052D01*
X175869560Y-67744869D01*
X175901964Y-67784941D01*
X175918704Y-67799943D01*
X175985389Y-67839957D01*
X176052637Y-67853213D01*
X176107794Y-67840119D01*
X176138209Y-67801081D01*
X176139881Y-67792833D01*
X176129370Y-67745183D01*
X176098929Y-67726834D01*
X176051422Y-67691447D01*
X176034128Y-67630903D01*
X176043973Y-67553027D01*
X176077881Y-67465647D01*
X176132778Y-67376590D01*
X176205588Y-67293683D01*
X176293235Y-67224754D01*
X176297143Y-67222314D01*
X176364473Y-67190671D01*
X176414842Y-67196655D01*
X176462053Y-67242541D01*
X176467887Y-67250456D01*
X176511845Y-67285780D01*
X176555302Y-67282620D01*
X176589217Y-67248572D01*
X176604545Y-67191230D01*
X176599113Y-67140253D01*
X176560657Y-67073092D01*
X176491672Y-67031133D01*
X176402054Y-67015865D01*
X176301697Y-67028779D01*
X176200495Y-67071366D01*
X176188885Y-67078465D01*
X176059678Y-67182128D01*
X175956714Y-67308593D01*
X175886182Y-67447927D01*
X175854277Y-67590199D01*
X175853089Y-67617070D01*
X175070626Y-67617070D01*
X175061325Y-67609211D01*
X174828175Y-67417002D01*
X174621937Y-67252748D01*
X174537283Y-67188473D01*
X175189438Y-67188473D01*
X175191064Y-67226147D01*
X175226431Y-67240563D01*
X175293455Y-67226312D01*
X175348316Y-67201586D01*
X175404826Y-67174787D01*
X175447667Y-67167498D01*
X175492478Y-67182177D01*
X175554897Y-67221285D01*
X175578978Y-67237860D01*
X175570837Y-67257798D01*
X175540515Y-67302230D01*
X175514540Y-67336193D01*
X175460691Y-67417053D01*
X175443490Y-67474860D01*
X175462064Y-67506933D01*
X175515541Y-67510589D01*
X175566860Y-67497060D01*
X175618971Y-67463533D01*
X175685415Y-67397463D01*
X175748948Y-67319049D01*
X175845655Y-67178053D01*
X175924496Y-67041288D01*
X175983340Y-66914566D01*
X176020056Y-66803701D01*
X176032511Y-66714506D01*
X176018575Y-66652796D01*
X176000267Y-66633547D01*
X175970698Y-66622265D01*
X175932485Y-66624607D01*
X175881781Y-66642929D01*
X175814736Y-66679589D01*
X175727505Y-66736941D01*
X175616237Y-66817344D01*
X175477086Y-66923153D01*
X175306203Y-67056725D01*
X175295734Y-67064982D01*
X175223634Y-67132948D01*
X175189438Y-67188473D01*
X174537283Y-67188473D01*
X174439289Y-67114069D01*
X174276910Y-66998582D01*
X174131481Y-66903908D01*
X173999679Y-66827666D01*
X173878184Y-66767475D01*
X173787823Y-66729903D01*
X173750956Y-66718703D01*
X173737523Y-66730560D01*
X173740668Y-66775633D01*
X173743569Y-66795477D01*
X173745192Y-66871772D01*
X173734112Y-66962829D01*
X173725860Y-66999999D01*
X173707354Y-67122292D01*
X173716270Y-67201497D01*
X173727722Y-67330521D01*
X173698035Y-67445149D01*
X173632203Y-67539228D01*
X173535219Y-67606608D01*
X173412076Y-67641137D01*
X173356749Y-67644372D01*
X173293913Y-67648902D01*
X173266365Y-67665663D01*
X173262182Y-67685378D01*
X173240771Y-67762118D01*
X173184490Y-67837416D01*
X173104788Y-67902704D01*
X173013112Y-67949414D01*
X172920911Y-67968977D01*
X172885648Y-67967167D01*
X172835848Y-67966946D01*
X172812203Y-67994686D01*
X172804670Y-68022376D01*
X172759485Y-68125410D01*
X172678971Y-68206214D01*
X172571842Y-68258570D01*
X172448769Y-68276284D01*
X172348694Y-68256102D01*
X172277135Y-68200087D01*
X172237827Y-68112177D01*
X172231273Y-68046759D01*
X172220299Y-67989219D01*
X172183703Y-67963504D01*
X172115969Y-67967171D01*
X172074857Y-67977471D01*
X171967161Y-67997131D01*
X171834211Y-68005303D01*
X171693947Y-68002335D01*
X171564312Y-67988579D01*
X171466674Y-67965602D01*
X171329022Y-67901719D01*
X171184179Y-67807352D01*
X171047141Y-67693296D01*
X170955232Y-67597509D01*
X170853188Y-67456488D01*
X170758994Y-67287106D01*
X170681677Y-67107854D01*
X170630260Y-66937219D01*
X170628152Y-66927449D01*
X170593883Y-66719028D01*
X170569433Y-66469634D01*
X170554887Y-66184133D01*
X170550329Y-65867394D01*
X170555845Y-65524283D01*
X170571519Y-65159668D01*
X170591891Y-64849646D01*
X170603513Y-64701002D01*
X170613506Y-64592746D01*
X170623350Y-64518505D01*
X170634521Y-64471906D01*
X170648499Y-64446577D01*
X170666761Y-64436144D01*
X170688252Y-64434225D01*
X170714125Y-64437263D01*
X170727415Y-64453224D01*
X170730352Y-64492372D01*
X170725164Y-64564975D01*
X170722589Y-64592389D01*
X170701503Y-64845382D01*
X170684709Y-65113316D01*
X170672365Y-65387642D01*
X170664629Y-65659807D01*
X170661658Y-65921261D01*
X170663611Y-66163453D01*
X170670643Y-66377832D01*
X170682914Y-66555847D01*
X170685868Y-66585010D01*
X170730720Y-66870229D01*
X170800369Y-67117654D01*
X170896072Y-67330012D01*
X171019084Y-67510030D01*
X171170663Y-67660435D01*
X171187460Y-67673967D01*
X171303517Y-67765725D01*
X171309136Y-67738543D01*
X171439749Y-67738543D01*
X171455863Y-67804353D01*
X171507393Y-67853057D01*
X171597153Y-67884642D01*
X171719521Y-67898511D01*
X171868873Y-67894065D01*
X172039583Y-67870707D01*
X172054069Y-67867989D01*
X172141997Y-67849996D01*
X172212302Y-67833452D01*
X172251944Y-67821472D01*
X172254886Y-67819998D01*
X172256311Y-67794358D01*
X172234502Y-67744266D01*
X172214292Y-67710915D01*
X172180023Y-67656842D01*
X172325000Y-67656842D01*
X172335571Y-67678871D01*
X172362578Y-67728349D01*
X172383297Y-67764997D01*
X172429419Y-67864765D01*
X172438065Y-67938154D01*
X172409322Y-67986809D01*
X172395295Y-67995848D01*
X172357955Y-68038845D01*
X172350423Y-68098638D01*
X172375004Y-68154078D01*
X172377721Y-68156979D01*
X172428637Y-68178639D01*
X172498716Y-68171792D01*
X172573205Y-68140269D01*
X172635470Y-68090019D01*
X172687286Y-68000199D01*
X172701463Y-67896859D01*
X172685867Y-67822501D01*
X172650447Y-67779044D01*
X172584284Y-67733109D01*
X172502190Y-67693211D01*
X172418979Y-67667866D01*
X172418649Y-67667804D01*
X172685540Y-67667804D01*
X172712740Y-67653406D01*
X172752169Y-67620940D01*
X172780242Y-67588442D01*
X172779143Y-67574111D01*
X172778253Y-67574077D01*
X172745837Y-67589893D01*
X172711623Y-67620940D01*
X172686079Y-67654744D01*
X172685540Y-67667804D01*
X172418649Y-67667804D01*
X172415888Y-67667285D01*
X172358667Y-67658208D01*
X172327138Y-67655903D01*
X172325000Y-67656842D01*
X172180023Y-67656842D01*
X172177712Y-67653195D01*
X172165609Y-67620446D01*
X172175995Y-67598964D01*
X172195753Y-67583168D01*
X172254862Y-67560609D01*
X172339497Y-67551610D01*
X172430141Y-67556788D01*
X172499408Y-67573571D01*
X172544440Y-67583351D01*
X172585782Y-67568587D01*
X172634466Y-67529703D01*
X172680208Y-67486282D01*
X172695132Y-67456897D01*
X172683809Y-67424865D01*
X172669417Y-67402158D01*
X172640753Y-67347157D01*
X172638805Y-67339760D01*
X172769538Y-67339760D01*
X172826171Y-67427629D01*
X172877134Y-67514157D01*
X172898561Y-67575983D01*
X172891441Y-67623962D01*
X172856767Y-67668948D01*
X172848888Y-67676445D01*
X172807976Y-67720186D01*
X172798717Y-67755450D01*
X172812251Y-67795468D01*
X172856152Y-67842566D01*
X172922687Y-67857295D01*
X173000611Y-67839663D01*
X173072221Y-67795266D01*
X173137267Y-67714120D01*
X173161719Y-67620079D01*
X173143174Y-67523825D01*
X173136436Y-67509664D01*
X173087190Y-67452258D01*
X173008988Y-67398388D01*
X172919335Y-67357717D01*
X172835736Y-67339911D01*
X172828705Y-67339760D01*
X172769538Y-67339760D01*
X172638805Y-67339760D01*
X172629612Y-67304856D01*
X172644196Y-67279614D01*
X173049575Y-67279614D01*
X173100624Y-67318121D01*
X173140906Y-67343096D01*
X173170240Y-67335897D01*
X173195256Y-67313046D01*
X173228027Y-67273853D01*
X173238837Y-67250719D01*
X173224207Y-67219347D01*
X173212308Y-67205444D01*
X173182125Y-67194804D01*
X173135912Y-67216386D01*
X173117677Y-67229265D01*
X173049575Y-67279614D01*
X172644196Y-67279614D01*
X172650740Y-67268288D01*
X172705382Y-67241033D01*
X172780429Y-67227681D01*
X172844076Y-67229789D01*
X172899775Y-67232108D01*
X172943982Y-67216298D01*
X172994069Y-67174535D01*
X173016315Y-67152225D01*
X173070277Y-67089250D01*
X173090436Y-67042403D01*
X173088619Y-67024186D01*
X173238837Y-67024186D01*
X173249409Y-67046215D01*
X173276416Y-67095692D01*
X173297135Y-67132340D01*
X173343256Y-67232108D01*
X173351903Y-67305497D01*
X173323160Y-67354152D01*
X173309133Y-67363191D01*
X173271793Y-67406188D01*
X173264260Y-67465981D01*
X173288841Y-67521421D01*
X173291559Y-67524322D01*
X173342474Y-67545983D01*
X173412553Y-67539135D01*
X173487043Y-67507612D01*
X173549308Y-67457362D01*
X173601124Y-67367542D01*
X173615300Y-67264202D01*
X173599704Y-67189844D01*
X173564284Y-67146387D01*
X173498121Y-67100452D01*
X173416028Y-67060554D01*
X173332817Y-67035209D01*
X173329726Y-67034628D01*
X173272505Y-67025551D01*
X173240975Y-67023246D01*
X173238837Y-67024186D01*
X173088619Y-67024186D01*
X173087763Y-67015597D01*
X173093001Y-66967979D01*
X173131287Y-66937346D01*
X173420532Y-66937346D01*
X173511281Y-66984028D01*
X173602029Y-67030709D01*
X173620684Y-66981101D01*
X173630918Y-66926550D01*
X173633429Y-66851796D01*
X173632400Y-66829784D01*
X173625461Y-66728076D01*
X173522997Y-66832711D01*
X173420532Y-66937346D01*
X173131287Y-66937346D01*
X173136154Y-66933452D01*
X173208785Y-66918226D01*
X173220400Y-66917988D01*
X173272313Y-66898289D01*
X173348867Y-66839450D01*
X173424795Y-66767192D01*
X173495059Y-66695391D01*
X173536859Y-66647843D01*
X173547349Y-66629243D01*
X174508736Y-66629243D01*
X174522272Y-66666805D01*
X174570170Y-66682711D01*
X174591285Y-66683548D01*
X174632839Y-66679296D01*
X174677467Y-66663201D01*
X174735610Y-66630003D01*
X174817710Y-66574444D01*
X174842146Y-66557192D01*
X174904832Y-66512725D01*
X174985672Y-66591079D01*
X175033184Y-66641273D01*
X175062252Y-66679966D01*
X175066513Y-66690986D01*
X175053580Y-66720186D01*
X175020087Y-66773636D01*
X174984502Y-66824261D01*
X174927734Y-66910499D01*
X174904186Y-66971287D01*
X174911961Y-67012206D01*
X174918112Y-67019526D01*
X174960374Y-67034123D01*
X175021881Y-67028338D01*
X175066914Y-67011501D01*
X175101447Y-66983454D01*
X175158250Y-66927198D01*
X175230038Y-66850892D01*
X175309524Y-66762692D01*
X175389423Y-66670759D01*
X175462448Y-66583249D01*
X175521314Y-66508323D01*
X175542865Y-66478555D01*
X175582074Y-66415782D01*
X175594488Y-66373354D01*
X175584242Y-66336405D01*
X175583040Y-66334118D01*
X175545275Y-66294628D01*
X175491233Y-66291673D01*
X175417472Y-66326024D01*
X175329800Y-66390774D01*
X175264355Y-66442881D01*
X175212918Y-66480569D01*
X175186017Y-66496152D01*
X175185363Y-66496217D01*
X175160320Y-66480790D01*
X175117728Y-66442271D01*
X175102663Y-66426969D01*
X175061695Y-66380836D01*
X175050239Y-66349600D01*
X175064321Y-66315373D01*
X175074386Y-66299623D01*
X175112164Y-66220664D01*
X175135807Y-66129773D01*
X175141239Y-66046820D01*
X175133995Y-66008944D01*
X175100139Y-65961396D01*
X175051153Y-65956718D01*
X174989086Y-65994179D01*
X174915984Y-66073047D01*
X174901487Y-66092020D01*
X174832350Y-66181611D01*
X174750542Y-66283017D01*
X174679694Y-66367343D01*
X174586908Y-66481441D01*
X174530102Y-66568098D01*
X174508736Y-66629243D01*
X173547349Y-66629243D01*
X173554957Y-66615753D01*
X173554120Y-66590329D01*
X173539112Y-66562779D01*
X173537173Y-66559809D01*
X173490567Y-66511341D01*
X173426085Y-66468257D01*
X173418647Y-66464572D01*
X173310142Y-66431509D01*
X173182302Y-66427654D01*
X173031732Y-66453689D01*
X172855040Y-66510301D01*
X172648830Y-66598172D01*
X172571033Y-66635468D01*
X172314118Y-66771393D01*
X172082598Y-66913585D01*
X171880842Y-67058708D01*
X171713217Y-67203427D01*
X171584094Y-67344405D01*
X171519247Y-67438581D01*
X171472974Y-67539234D01*
X171445629Y-67644103D01*
X171439749Y-67738543D01*
X171309136Y-67738543D01*
X171329378Y-67640611D01*
X171368003Y-67506207D01*
X171428950Y-67382855D01*
X171518900Y-67259433D01*
X171631273Y-67138000D01*
X171788175Y-66998519D01*
X171978806Y-66857113D01*
X172192024Y-66720114D01*
X172416691Y-66593859D01*
X172641667Y-66484680D01*
X172855813Y-66398911D01*
X173016800Y-66350176D01*
X173117467Y-66326366D01*
X173188310Y-66314101D01*
X173244750Y-66312717D01*
X173302208Y-66321553D01*
X173359044Y-66335475D01*
X173431074Y-66352118D01*
X173480865Y-66359565D01*
X173496586Y-66357071D01*
X173485772Y-66332329D01*
X173456248Y-66275070D01*
X173412394Y-66193557D01*
X173358587Y-66096054D01*
X173352760Y-66085623D01*
X173251785Y-65902116D01*
X173172602Y-65748842D01*
X173112278Y-65616227D01*
X173067876Y-65494695D01*
X173036462Y-65374672D01*
X173015100Y-65246583D01*
X173000856Y-65100853D01*
X172990794Y-64927907D01*
X172989542Y-64900777D01*
X172983518Y-64737626D01*
X172982648Y-64615774D01*
X172987613Y-64529871D01*
X172999089Y-64474568D01*
X173017755Y-64444515D01*
X173044289Y-64434362D01*
X173048674Y-64434225D01*
X173064287Y-64437391D01*
G37*
D12*
G04 #@! TO.C,R3*
X170540000Y-103230000D02*
X177080000Y-103230000D01*
X170540000Y-103560000D02*
X170540000Y-103230000D01*
X170540000Y-105640000D02*
X170540000Y-105970000D01*
X170540000Y-105970000D02*
X177080000Y-105970000D01*
X177080000Y-103230000D02*
X177080000Y-103560000D01*
X177080000Y-105970000D02*
X177080000Y-105640000D01*
G04 #@! TO.C,R1*
X170540000Y-95130000D02*
X177080000Y-95130000D01*
X170540000Y-95460000D02*
X170540000Y-95130000D01*
X170540000Y-97540000D02*
X170540000Y-97870000D01*
X170540000Y-97870000D02*
X177080000Y-97870000D01*
X177080000Y-95130000D02*
X177080000Y-95460000D01*
X177080000Y-97870000D02*
X177080000Y-97540000D01*
G04 #@! TO.C,D4*
X224935000Y-91455000D02*
X224935000Y-94545000D01*
X224935000Y-91455170D02*
G75*
G02*
X230485000Y-93000000I2560000J-1544830D01*
G01*
X230485000Y-93000000D02*
G75*
G02*
X224935000Y-94544830I-2990000J0D01*
G01*
X229995000Y-93000000D02*
G75*
G02*
X224995000Y-93000000I-2500000J0D01*
G01*
X224995000Y-93000000D02*
G75*
G02*
X229995000Y-93000000I2500000J0D01*
G01*
G04 #@! TD*
%LPC*%
D14*
G04 #@! TO.C,RV2*
X217500000Y-102000000D03*
X220040000Y-99460000D03*
X217500000Y-96920000D03*
G04 #@! TD*
D15*
G04 #@! TO.C,D1*
X148725000Y-80000000D03*
D16*
X151265000Y-80000000D03*
G04 #@! TD*
D17*
G04 #@! TO.C,C1*
X201894698Y-100791925D03*
D18*
X206894698Y-100791925D03*
G04 #@! TD*
D19*
G04 #@! TO.C,BT1*
X178015000Y-77000000D03*
X199985000Y-77000000D03*
D20*
X189000000Y-77000000D03*
G04 #@! TD*
D21*
G04 #@! TO.C,SW1*
X187250000Y-98041925D03*
X193750000Y-98041925D03*
X187250000Y-102541925D03*
X193750000Y-102541925D03*
G04 #@! TD*
D18*
G04 #@! TO.C,R2*
X170000000Y-100550000D03*
X177620000Y-100550000D03*
G04 #@! TD*
D15*
G04 #@! TO.C,D3*
X231460000Y-82500000D03*
D16*
X234000000Y-82500000D03*
G04 #@! TD*
D15*
G04 #@! TO.C,D2*
X155725000Y-90000000D03*
D16*
X158265000Y-90000000D03*
G04 #@! TD*
D18*
G04 #@! TO.C,R3*
X170000000Y-104600000D03*
X177620000Y-104600000D03*
G04 #@! TD*
G04 #@! TO.C,R1*
X170000000Y-96500000D03*
X177620000Y-96500000D03*
G04 #@! TD*
D15*
G04 #@! TO.C,D4*
X226225000Y-93000000D03*
D16*
X228765000Y-93000000D03*
G04 #@! TD*
%LPD*%
M02*
