G04 #@! TF.GenerationSoftware,KiCad,Pcbnew,9.0.2*
G04 #@! TF.CreationDate,2025-06-29T23:08:07-05:00*
G04 #@! TF.ProjectId,project-solder,70726f6a-6563-4742-9d73-6f6c6465722e,rev?*
G04 #@! TF.SameCoordinates,Original*
G04 #@! TF.FileFunction,Copper,L1,Top*
G04 #@! TF.FilePolarity,Positive*
%FSLAX46Y46*%
G04 Gerber Fmt 4.6, Leading zero omitted, Abs format (unit mm)*
G04 Created by KiCad (PCBNEW 9.0.2) date 2025-06-29 23:08:07*
%MOMM*%
%LPD*%
G01*
G04 APERTURE LIST*
G04 Aperture macros list*
%AMRoundRect*
0 Rectangle with rounded corners*
0 $1 Rounding radius*
0 $2 $3 $4 $5 $6 $7 $8 $9 X,Y pos of 4 corners*
0 Add a 4 corners polygon primitive as box body*
4,1,4,$2,$3,$4,$5,$6,$7,$8,$9,$2,$3,0*
0 Add four circle primitives for the rounded corners*
1,1,$1+$1,$2,$3*
1,1,$1+$1,$4,$5*
1,1,$1+$1,$6,$7*
1,1,$1+$1,$8,$9*
0 Add four rect primitives between the rounded corners*
20,1,$1+$1,$2,$3,$4,$5,0*
20,1,$1+$1,$4,$5,$6,$7,0*
20,1,$1+$1,$6,$7,$8,$9,0*
20,1,$1+$1,$8,$9,$2,$3,0*%
G04 Aperture macros list end*
G04 #@! TA.AperFunction,ComponentPad*
%ADD10C,1.440000*%
G04 #@! TD*
G04 #@! TA.AperFunction,ComponentPad*
%ADD11R,1.800000X1.800000*%
G04 #@! TD*
G04 #@! TA.AperFunction,ComponentPad*
%ADD12C,1.800000*%
G04 #@! TD*
G04 #@! TA.AperFunction,ComponentPad*
%ADD13RoundRect,0.250000X-0.550000X-0.550000X0.550000X-0.550000X0.550000X0.550000X-0.550000X0.550000X0*%
G04 #@! TD*
G04 #@! TA.AperFunction,ComponentPad*
%ADD14C,1.600000*%
G04 #@! TD*
G04 #@! TA.AperFunction,SMDPad,CuDef*
%ADD15R,1.270000X5.080000*%
G04 #@! TD*
G04 #@! TA.AperFunction,SMDPad,CuDef*
%ADD16C,17.800000*%
G04 #@! TD*
G04 #@! TA.AperFunction,ComponentPad*
%ADD17C,2.000000*%
G04 #@! TD*
G04 #@! TA.AperFunction,ViaPad*
%ADD18C,0.600000*%
G04 #@! TD*
G04 #@! TA.AperFunction,Conductor*
%ADD19C,0.200000*%
G04 #@! TD*
G04 APERTURE END LIST*
D10*
G04 #@! TO.P,RV2,1,1*
G04 #@! TO.N,Net-(BT1--)*
X217500000Y-102000000D03*
G04 #@! TO.P,RV2,2,2*
G04 #@! TO.N,Net-(D4-K)*
X220040000Y-99460000D03*
G04 #@! TO.P,RV2,3,3*
G04 #@! TO.N,unconnected-(RV2-Pad3)*
X217500000Y-96920000D03*
G04 #@! TD*
D11*
G04 #@! TO.P,D1,1,K*
G04 #@! TO.N,Net-(D1-K)*
X148725000Y-80000000D03*
D12*
G04 #@! TO.P,D1,2,A*
G04 #@! TO.N,Net-(D1-A)*
X151265000Y-80000000D03*
G04 #@! TD*
D13*
G04 #@! TO.P,C1,1*
G04 #@! TO.N,Net-(D1-A)*
X201894698Y-100791925D03*
D14*
G04 #@! TO.P,C1,2*
G04 #@! TO.N,Net-(BT1--)*
X206894698Y-100791925D03*
G04 #@! TD*
D15*
G04 #@! TO.P,BT1,1,+*
G04 #@! TO.N,Net-(BT1-+)*
X178015000Y-77000000D03*
X199985000Y-77000000D03*
D16*
G04 #@! TO.P,BT1,2,-*
G04 #@! TO.N,Net-(BT1--)*
X189000000Y-77000000D03*
G04 #@! TD*
D17*
G04 #@! TO.P,SW1,1,1*
G04 #@! TO.N,Net-(BT1-+)*
X187250000Y-98041925D03*
X193750000Y-98041925D03*
G04 #@! TO.P,SW1,2,2*
G04 #@! TO.N,Net-(D1-A)*
X187250000Y-102541925D03*
X193750000Y-102541925D03*
G04 #@! TD*
D14*
G04 #@! TO.P,R2,1*
G04 #@! TO.N,Net-(D2-K)*
X170000000Y-100550000D03*
G04 #@! TO.P,R2,2*
G04 #@! TO.N,Net-(BT1--)*
X177620000Y-100550000D03*
G04 #@! TD*
D11*
G04 #@! TO.P,D3,1,K*
G04 #@! TO.N,Net-(D3-K)*
X231460000Y-82500000D03*
D12*
G04 #@! TO.P,D3,2,A*
G04 #@! TO.N,Net-(D1-A)*
X234000000Y-82500000D03*
G04 #@! TD*
D11*
G04 #@! TO.P,D2,1,K*
G04 #@! TO.N,Net-(D2-K)*
X155725000Y-90000000D03*
D12*
G04 #@! TO.P,D2,2,A*
G04 #@! TO.N,Net-(D1-A)*
X158265000Y-90000000D03*
G04 #@! TD*
D14*
G04 #@! TO.P,R3,1*
G04 #@! TO.N,Net-(D3-K)*
X170000000Y-104600000D03*
G04 #@! TO.P,R3,2*
G04 #@! TO.N,Net-(BT1--)*
X177620000Y-104600000D03*
G04 #@! TD*
G04 #@! TO.P,R1,1*
G04 #@! TO.N,Net-(D1-K)*
X170000000Y-96500000D03*
G04 #@! TO.P,R1,2*
G04 #@! TO.N,Net-(BT1--)*
X177620000Y-96500000D03*
G04 #@! TD*
D11*
G04 #@! TO.P,D4,1,K*
G04 #@! TO.N,Net-(D4-K)*
X226225000Y-93000000D03*
D12*
G04 #@! TO.P,D4,2,A*
G04 #@! TO.N,Net-(BT1-+)*
X228765000Y-93000000D03*
G04 #@! TD*
D18*
G04 #@! TO.N,Net-(BT1-+)*
X181459265Y-103540735D03*
G04 #@! TO.N,Net-(D3-K)*
X181862986Y-83117441D03*
G04 #@! TD*
D19*
G04 #@! TO.N,Net-(D1-K)*
X148725000Y-80000000D02*
X148725000Y-87725000D01*
X148725000Y-87725000D02*
X157500000Y-96500000D01*
X157500000Y-96500000D02*
X168498000Y-96500000D01*
G04 #@! TO.N,Net-(BT1-+)*
X194288892Y-103842925D02*
X195051000Y-103080817D01*
X192811179Y-67799000D02*
X199985000Y-74972821D01*
X185949000Y-103080817D02*
X185489082Y-103540735D01*
X168899000Y-84088821D02*
X185188821Y-67799000D01*
X195051000Y-99342925D02*
X193750000Y-98041925D01*
X168899000Y-105056050D02*
X168899000Y-84088821D01*
X228765000Y-93000000D02*
X216064000Y-105701000D01*
X216064000Y-105701000D02*
X169543950Y-105701000D01*
X195051000Y-103080817D02*
X195051000Y-99342925D01*
X185949000Y-99342925D02*
X185949000Y-103080817D01*
X187250000Y-98041925D02*
X185949000Y-99342925D01*
X185188821Y-67799000D02*
X192811179Y-67799000D01*
X199985000Y-74972821D02*
X199985000Y-77000000D01*
X186711108Y-103842925D02*
X194288892Y-103842925D01*
X185949000Y-103080817D02*
X186711108Y-103842925D01*
X169543950Y-105701000D02*
X168899000Y-105056050D01*
X185489082Y-103540735D02*
X181459265Y-103540735D01*
G04 #@! TO.N,Net-(D2-K)*
X155725000Y-90000000D02*
X149926000Y-84201000D01*
X160982900Y-100550000D02*
X168498000Y-100550000D01*
X147524000Y-87091100D02*
X160982900Y-100550000D01*
X147524000Y-78799000D02*
X147524000Y-87091100D01*
X149926000Y-78799000D02*
X147524000Y-78799000D01*
X149926000Y-84201000D02*
X149926000Y-78799000D01*
G04 #@! TO.N,Net-(BT1--)*
X177620000Y-88380000D02*
X189000000Y-77000000D01*
X177620000Y-100550000D02*
X177620000Y-88380000D01*
X177620000Y-104600000D02*
X177620000Y-102947100D01*
X181313925Y-104243925D02*
X178818550Y-101748550D01*
X217500000Y-102000000D02*
X208102773Y-102000000D01*
X206894698Y-100791925D02*
X203442698Y-104243925D01*
X177620000Y-102947100D02*
X178818550Y-101748550D01*
X177620000Y-100550000D02*
X177620000Y-96500000D01*
X177620000Y-100550000D02*
X178818550Y-101748550D01*
X203442698Y-104243925D02*
X181313925Y-104243925D01*
X208102773Y-102000000D02*
X206894698Y-100791925D01*
G04 #@! TO.N,Net-(D1-A)*
X147123000Y-78632900D02*
X147123000Y-88123000D01*
X187250000Y-102541925D02*
X193750000Y-102541925D01*
X192449000Y-101240925D02*
X193750000Y-102541925D01*
X229966000Y-93497471D02*
X229966000Y-92502529D01*
X229966000Y-92502529D02*
X229262471Y-91799000D01*
X187250000Y-102541925D02*
X193051000Y-96740925D01*
X151265000Y-80000000D02*
X151265000Y-83000000D01*
X229262471Y-91799000D02*
X197992925Y-91799000D01*
X193051000Y-96740925D02*
X197843698Y-96740925D01*
X158265000Y-90000000D02*
X158265000Y-86570900D01*
X217361471Y-106102000D02*
X229966000Y-93497471D01*
X150092100Y-78398000D02*
X147357900Y-78398000D01*
X234000000Y-82500000D02*
X232799000Y-83701000D01*
X165102000Y-106102000D02*
X217361471Y-106102000D01*
X193211108Y-96740925D02*
X192449000Y-97503033D01*
X158265000Y-86570900D02*
X150092100Y-78398000D01*
X151265000Y-83000000D02*
X158265000Y-90000000D01*
X192449000Y-97503033D02*
X192449000Y-101240925D01*
X147123000Y-88123000D02*
X165102000Y-106102000D01*
X197992925Y-91799000D02*
X187250000Y-102541925D01*
X197843698Y-96740925D02*
X201894698Y-100791925D01*
X232799000Y-83701000D02*
X218985623Y-83701000D01*
X197843698Y-96740925D02*
X193211108Y-96740925D01*
X218985623Y-83701000D02*
X201894698Y-100791925D01*
X147357900Y-78398000D02*
X147123000Y-78632900D01*
G04 #@! TO.N,Net-(D3-K)*
X177163950Y-87816477D02*
X181862986Y-83117441D01*
X170000000Y-104600000D02*
X170000000Y-102562950D01*
X197002529Y-82997471D02*
X230962529Y-82997471D01*
X170000000Y-102562950D02*
X177163950Y-95399000D01*
X177163950Y-95399000D02*
X177163950Y-87816477D01*
X170000000Y-104600000D02*
X175400000Y-104600000D01*
X230962529Y-82997471D02*
X231460000Y-82500000D01*
G04 #@! TO.N,Net-(D4-K)*
X226225000Y-93275000D02*
X220040000Y-99460000D01*
X226225000Y-93000000D02*
X226225000Y-93275000D01*
G04 #@! TD*
M02*
