M48
; DRILL file {KiCad 9.0.2} date 2025-06-29T23:08:07-0500
; FORMAT={-:-/ absolute / metric / decimal}
; #@! TF.CreationDate,2025-06-29T23:08:07-05:00
; #@! TF.GenerationSoftware,Kicad,Pcbnew,9.0.2
; #@! TF.FileFunction,Plated,1,2,PTH
FMAT,2
METRIC
; #@! TA.AperFunction,Plated,PTH,ViaDrill
T1C0.300
; #@! TA.AperFunction,Plated,PTH,ComponentDrill
T2C0.800
; #@! TA.AperFunction,Plated,PTH,ComponentDrill
T3C0.900
; #@! TA.AperFunction,Plated,PTH,ComponentDrill
T4C1.100
%
G90
G05
T1
X181.459Y-103.541
X181.863Y-83.117
T2
X170.0Y-96.5
X170.0Y-100.55
X170.0Y-104.6
X177.62Y-96.5
X177.62Y-100.55
X177.62Y-104.6
X201.895Y-100.792
X206.895Y-100.792
X217.5Y-96.92
X217.5Y-102.0
X220.04Y-99.46
T3
X148.725Y-80.0
X151.265Y-80.0
X155.725Y-90.0
X158.265Y-90.0
X226.225Y-93.0
X228.765Y-93.0
X231.46Y-82.5
X234.0Y-82.5
T4
X187.25Y-98.042
X187.25Y-102.542
X193.75Y-98.042
X193.75Y-102.542
M30
