%TF.GenerationSoftware,KiCad,Pcbnew,9.0.2*%
%TF.CreationDate,2025-06-29T23:08:07-05:00*%
%TF.ProjectId,project-solder,70726f6a-6563-4742-9d73-6f6c6465722e,rev?*%
%TF.SameCoordinates,Original*%
%TF.FileFunction,Drillmap*%
%TF.FilePolarity,Positive*%
%FSLAX45Y45*%
G04 Gerber Fmt 4.5, Leading zero omitted, Abs format (unit mm)*
G04 Created by KiCad (PCBNEW 9.0.2) date 2025-06-29 23:08:07*
%MOMM*%
%LPD*%
G01*
G04 APERTURE LIST*
%ADD10C,0.050000*%
%ADD11C,0.200000*%
%ADD12C,0.100000*%
%ADD13C,0.110000*%
G04 APERTURE END LIST*
D10*
X20350000Y-6250000D02*
X20650000Y-6350000D01*
X20700000Y-6550000D01*
X20700000Y-8200000D01*
X22150000Y-8200000D01*
X24000000Y-7200000D01*
X23150000Y-11300000D01*
X23000000Y-11450000D01*
X22750000Y-11600000D01*
X16850000Y-11600000D01*
X16400000Y-11450000D01*
X16150000Y-11200000D01*
X13550000Y-7100000D01*
X15550000Y-7150000D01*
X16250000Y-8200000D01*
X17000000Y-8200000D01*
X16950000Y-6450000D01*
X17100000Y-6250000D01*
X17500000Y-6200000D01*
X20350000Y-6250000D01*
D11*
D12*
X18130927Y-10339074D02*
X18160927Y-10369074D01*
X18160927Y-10339074D02*
X18130927Y-10369074D01*
X18171299Y-8296744D02*
X18201299Y-8326744D01*
X18201299Y-8296744D02*
X18171299Y-8326744D01*
X17040000Y-9650000D02*
G75*
G02*
X16960000Y-9650000I-40000J0D01*
G01*
X16960000Y-9650000D02*
G75*
G02*
X17040000Y-9650000I40000J0D01*
G01*
X17040000Y-10055000D02*
G75*
G02*
X16960000Y-10055000I-40000J0D01*
G01*
X16960000Y-10055000D02*
G75*
G02*
X17040000Y-10055000I40000J0D01*
G01*
X17040000Y-10460000D02*
G75*
G02*
X16960000Y-10460000I-40000J0D01*
G01*
X16960000Y-10460000D02*
G75*
G02*
X17040000Y-10460000I40000J0D01*
G01*
X17802000Y-9650000D02*
G75*
G02*
X17722000Y-9650000I-40000J0D01*
G01*
X17722000Y-9650000D02*
G75*
G02*
X17802000Y-9650000I40000J0D01*
G01*
X17802000Y-10055000D02*
G75*
G02*
X17722000Y-10055000I-40000J0D01*
G01*
X17722000Y-10055000D02*
G75*
G02*
X17802000Y-10055000I40000J0D01*
G01*
X17802000Y-10460000D02*
G75*
G02*
X17722000Y-10460000I-40000J0D01*
G01*
X17722000Y-10460000D02*
G75*
G02*
X17802000Y-10460000I40000J0D01*
G01*
X20229470Y-10079193D02*
G75*
G02*
X20149470Y-10079193I-40000J0D01*
G01*
X20149470Y-10079193D02*
G75*
G02*
X20229470Y-10079193I40000J0D01*
G01*
X20729470Y-10079193D02*
G75*
G02*
X20649470Y-10079193I-40000J0D01*
G01*
X20649470Y-10079193D02*
G75*
G02*
X20729470Y-10079193I40000J0D01*
G01*
X21790000Y-9692000D02*
G75*
G02*
X21710000Y-9692000I-40000J0D01*
G01*
X21710000Y-9692000D02*
G75*
G02*
X21790000Y-9692000I40000J0D01*
G01*
X21790000Y-10200000D02*
G75*
G02*
X21710000Y-10200000I-40000J0D01*
G01*
X21710000Y-10200000D02*
G75*
G02*
X21790000Y-10200000I40000J0D01*
G01*
X22044000Y-9946000D02*
G75*
G02*
X21964000Y-9946000I-40000J0D01*
G01*
X21964000Y-9946000D02*
G75*
G02*
X22044000Y-9946000I40000J0D01*
G01*
X14872500Y-7955000D02*
X14872500Y-8045000D01*
X14827500Y-8000000D02*
X14917500Y-8000000D01*
X15126500Y-7955000D02*
X15126500Y-8045000D01*
X15081500Y-8000000D02*
X15171500Y-8000000D01*
X15572500Y-8955000D02*
X15572500Y-9045000D01*
X15527500Y-9000000D02*
X15617500Y-9000000D01*
X15826500Y-8955000D02*
X15826500Y-9045000D01*
X15781500Y-9000000D02*
X15871500Y-9000000D01*
X22622500Y-9255000D02*
X22622500Y-9345000D01*
X22577500Y-9300000D02*
X22667500Y-9300000D01*
X22876500Y-9255000D02*
X22876500Y-9345000D01*
X22831500Y-9300000D02*
X22921500Y-9300000D01*
X23146000Y-8205000D02*
X23146000Y-8295000D01*
X23101000Y-8250000D02*
X23191000Y-8250000D01*
X23400000Y-8205000D02*
X23400000Y-8295000D01*
X23355000Y-8250000D02*
X23445000Y-8250000D01*
D13*
X18763891Y-9843084D02*
X18763891Y-9765301D01*
X18686109Y-9765301D01*
X18686109Y-9843084D01*
X18763891Y-9843084D01*
X18763891Y-10293084D02*
X18763891Y-10215301D01*
X18686109Y-10215301D01*
X18686109Y-10293084D01*
X18763891Y-10293084D01*
X19413891Y-9843084D02*
X19413891Y-9765301D01*
X19336109Y-9765301D01*
X19336109Y-9843084D01*
X19413891Y-9843084D01*
X19413891Y-10293084D02*
X19413891Y-10215301D01*
X19336109Y-10215301D01*
X19336109Y-10293084D01*
X19413891Y-10293084D01*
D11*
X13808277Y-11913984D02*
X13808277Y-11713984D01*
X13808277Y-11713984D02*
X13855896Y-11713984D01*
X13855896Y-11713984D02*
X13884467Y-11723508D01*
X13884467Y-11723508D02*
X13903515Y-11742555D01*
X13903515Y-11742555D02*
X13913039Y-11761603D01*
X13913039Y-11761603D02*
X13922562Y-11799698D01*
X13922562Y-11799698D02*
X13922562Y-11828269D01*
X13922562Y-11828269D02*
X13913039Y-11866365D01*
X13913039Y-11866365D02*
X13903515Y-11885412D01*
X13903515Y-11885412D02*
X13884467Y-11904460D01*
X13884467Y-11904460D02*
X13855896Y-11913984D01*
X13855896Y-11913984D02*
X13808277Y-11913984D01*
X14008277Y-11913984D02*
X14008277Y-11780650D01*
X14008277Y-11818746D02*
X14017801Y-11799698D01*
X14017801Y-11799698D02*
X14027324Y-11790174D01*
X14027324Y-11790174D02*
X14046372Y-11780650D01*
X14046372Y-11780650D02*
X14065420Y-11780650D01*
X14132086Y-11913984D02*
X14132086Y-11780650D01*
X14132086Y-11713984D02*
X14122562Y-11723508D01*
X14122562Y-11723508D02*
X14132086Y-11733031D01*
X14132086Y-11733031D02*
X14141610Y-11723508D01*
X14141610Y-11723508D02*
X14132086Y-11713984D01*
X14132086Y-11713984D02*
X14132086Y-11733031D01*
X14255896Y-11913984D02*
X14236848Y-11904460D01*
X14236848Y-11904460D02*
X14227324Y-11885412D01*
X14227324Y-11885412D02*
X14227324Y-11713984D01*
X14360658Y-11913984D02*
X14341610Y-11904460D01*
X14341610Y-11904460D02*
X14332086Y-11885412D01*
X14332086Y-11885412D02*
X14332086Y-11713984D01*
X14589229Y-11913984D02*
X14589229Y-11713984D01*
X14589229Y-11713984D02*
X14655896Y-11856841D01*
X14655896Y-11856841D02*
X14722562Y-11713984D01*
X14722562Y-11713984D02*
X14722562Y-11913984D01*
X14903515Y-11913984D02*
X14903515Y-11809222D01*
X14903515Y-11809222D02*
X14893991Y-11790174D01*
X14893991Y-11790174D02*
X14874943Y-11780650D01*
X14874943Y-11780650D02*
X14836848Y-11780650D01*
X14836848Y-11780650D02*
X14817801Y-11790174D01*
X14903515Y-11904460D02*
X14884467Y-11913984D01*
X14884467Y-11913984D02*
X14836848Y-11913984D01*
X14836848Y-11913984D02*
X14817801Y-11904460D01*
X14817801Y-11904460D02*
X14808277Y-11885412D01*
X14808277Y-11885412D02*
X14808277Y-11866365D01*
X14808277Y-11866365D02*
X14817801Y-11847317D01*
X14817801Y-11847317D02*
X14836848Y-11837793D01*
X14836848Y-11837793D02*
X14884467Y-11837793D01*
X14884467Y-11837793D02*
X14903515Y-11828269D01*
X14998753Y-11780650D02*
X14998753Y-11980650D01*
X14998753Y-11790174D02*
X15017801Y-11780650D01*
X15017801Y-11780650D02*
X15055896Y-11780650D01*
X15055896Y-11780650D02*
X15074943Y-11790174D01*
X15074943Y-11790174D02*
X15084467Y-11799698D01*
X15084467Y-11799698D02*
X15093991Y-11818746D01*
X15093991Y-11818746D02*
X15093991Y-11875888D01*
X15093991Y-11875888D02*
X15084467Y-11894936D01*
X15084467Y-11894936D02*
X15074943Y-11904460D01*
X15074943Y-11904460D02*
X15055896Y-11913984D01*
X15055896Y-11913984D02*
X15017801Y-11913984D01*
X15017801Y-11913984D02*
X14998753Y-11904460D01*
X15179705Y-11894936D02*
X15189229Y-11904460D01*
X15189229Y-11904460D02*
X15179705Y-11913984D01*
X15179705Y-11913984D02*
X15170182Y-11904460D01*
X15170182Y-11904460D02*
X15179705Y-11894936D01*
X15179705Y-11894936D02*
X15179705Y-11913984D01*
X15179705Y-11790174D02*
X15189229Y-11799698D01*
X15189229Y-11799698D02*
X15179705Y-11809222D01*
X15179705Y-11809222D02*
X15170182Y-11799698D01*
X15170182Y-11799698D02*
X15179705Y-11790174D01*
X15179705Y-11790174D02*
X15179705Y-11809222D01*
D12*
X13517500Y-12227500D02*
X13547500Y-12257500D01*
X13547500Y-12227500D02*
X13517500Y-12257500D01*
D11*
X13846372Y-12133984D02*
X13865420Y-12133984D01*
X13865420Y-12133984D02*
X13884467Y-12143508D01*
X13884467Y-12143508D02*
X13893991Y-12153031D01*
X13893991Y-12153031D02*
X13903515Y-12172079D01*
X13903515Y-12172079D02*
X13913039Y-12210174D01*
X13913039Y-12210174D02*
X13913039Y-12257793D01*
X13913039Y-12257793D02*
X13903515Y-12295888D01*
X13903515Y-12295888D02*
X13893991Y-12314936D01*
X13893991Y-12314936D02*
X13884467Y-12324460D01*
X13884467Y-12324460D02*
X13865420Y-12333984D01*
X13865420Y-12333984D02*
X13846372Y-12333984D01*
X13846372Y-12333984D02*
X13827324Y-12324460D01*
X13827324Y-12324460D02*
X13817801Y-12314936D01*
X13817801Y-12314936D02*
X13808277Y-12295888D01*
X13808277Y-12295888D02*
X13798753Y-12257793D01*
X13798753Y-12257793D02*
X13798753Y-12210174D01*
X13798753Y-12210174D02*
X13808277Y-12172079D01*
X13808277Y-12172079D02*
X13817801Y-12153031D01*
X13817801Y-12153031D02*
X13827324Y-12143508D01*
X13827324Y-12143508D02*
X13846372Y-12133984D01*
X13998753Y-12314936D02*
X14008277Y-12324460D01*
X14008277Y-12324460D02*
X13998753Y-12333984D01*
X13998753Y-12333984D02*
X13989229Y-12324460D01*
X13989229Y-12324460D02*
X13998753Y-12314936D01*
X13998753Y-12314936D02*
X13998753Y-12333984D01*
X14074943Y-12133984D02*
X14198753Y-12133984D01*
X14198753Y-12133984D02*
X14132086Y-12210174D01*
X14132086Y-12210174D02*
X14160658Y-12210174D01*
X14160658Y-12210174D02*
X14179705Y-12219698D01*
X14179705Y-12219698D02*
X14189229Y-12229222D01*
X14189229Y-12229222D02*
X14198753Y-12248269D01*
X14198753Y-12248269D02*
X14198753Y-12295888D01*
X14198753Y-12295888D02*
X14189229Y-12314936D01*
X14189229Y-12314936D02*
X14179705Y-12324460D01*
X14179705Y-12324460D02*
X14160658Y-12333984D01*
X14160658Y-12333984D02*
X14103515Y-12333984D01*
X14103515Y-12333984D02*
X14084467Y-12324460D01*
X14084467Y-12324460D02*
X14074943Y-12314936D01*
X14322562Y-12133984D02*
X14341610Y-12133984D01*
X14341610Y-12133984D02*
X14360658Y-12143508D01*
X14360658Y-12143508D02*
X14370182Y-12153031D01*
X14370182Y-12153031D02*
X14379705Y-12172079D01*
X14379705Y-12172079D02*
X14389229Y-12210174D01*
X14389229Y-12210174D02*
X14389229Y-12257793D01*
X14389229Y-12257793D02*
X14379705Y-12295888D01*
X14379705Y-12295888D02*
X14370182Y-12314936D01*
X14370182Y-12314936D02*
X14360658Y-12324460D01*
X14360658Y-12324460D02*
X14341610Y-12333984D01*
X14341610Y-12333984D02*
X14322562Y-12333984D01*
X14322562Y-12333984D02*
X14303515Y-12324460D01*
X14303515Y-12324460D02*
X14293991Y-12314936D01*
X14293991Y-12314936D02*
X14284467Y-12295888D01*
X14284467Y-12295888D02*
X14274943Y-12257793D01*
X14274943Y-12257793D02*
X14274943Y-12210174D01*
X14274943Y-12210174D02*
X14284467Y-12172079D01*
X14284467Y-12172079D02*
X14293991Y-12153031D01*
X14293991Y-12153031D02*
X14303515Y-12143508D01*
X14303515Y-12143508D02*
X14322562Y-12133984D01*
X14513039Y-12133984D02*
X14532086Y-12133984D01*
X14532086Y-12133984D02*
X14551134Y-12143508D01*
X14551134Y-12143508D02*
X14560658Y-12153031D01*
X14560658Y-12153031D02*
X14570182Y-12172079D01*
X14570182Y-12172079D02*
X14579705Y-12210174D01*
X14579705Y-12210174D02*
X14579705Y-12257793D01*
X14579705Y-12257793D02*
X14570182Y-12295888D01*
X14570182Y-12295888D02*
X14560658Y-12314936D01*
X14560658Y-12314936D02*
X14551134Y-12324460D01*
X14551134Y-12324460D02*
X14532086Y-12333984D01*
X14532086Y-12333984D02*
X14513039Y-12333984D01*
X14513039Y-12333984D02*
X14493991Y-12324460D01*
X14493991Y-12324460D02*
X14484467Y-12314936D01*
X14484467Y-12314936D02*
X14474943Y-12295888D01*
X14474943Y-12295888D02*
X14465420Y-12257793D01*
X14465420Y-12257793D02*
X14465420Y-12210174D01*
X14465420Y-12210174D02*
X14474943Y-12172079D01*
X14474943Y-12172079D02*
X14484467Y-12153031D01*
X14484467Y-12153031D02*
X14493991Y-12143508D01*
X14493991Y-12143508D02*
X14513039Y-12133984D01*
X14665420Y-12333984D02*
X14665420Y-12200650D01*
X14665420Y-12219698D02*
X14674943Y-12210174D01*
X14674943Y-12210174D02*
X14693991Y-12200650D01*
X14693991Y-12200650D02*
X14722563Y-12200650D01*
X14722563Y-12200650D02*
X14741610Y-12210174D01*
X14741610Y-12210174D02*
X14751134Y-12229222D01*
X14751134Y-12229222D02*
X14751134Y-12333984D01*
X14751134Y-12229222D02*
X14760658Y-12210174D01*
X14760658Y-12210174D02*
X14779705Y-12200650D01*
X14779705Y-12200650D02*
X14808277Y-12200650D01*
X14808277Y-12200650D02*
X14827324Y-12210174D01*
X14827324Y-12210174D02*
X14836848Y-12229222D01*
X14836848Y-12229222D02*
X14836848Y-12333984D01*
X14932086Y-12333984D02*
X14932086Y-12200650D01*
X14932086Y-12219698D02*
X14941610Y-12210174D01*
X14941610Y-12210174D02*
X14960658Y-12200650D01*
X14960658Y-12200650D02*
X14989229Y-12200650D01*
X14989229Y-12200650D02*
X15008277Y-12210174D01*
X15008277Y-12210174D02*
X15017801Y-12229222D01*
X15017801Y-12229222D02*
X15017801Y-12333984D01*
X15017801Y-12229222D02*
X15027324Y-12210174D01*
X15027324Y-12210174D02*
X15046372Y-12200650D01*
X15046372Y-12200650D02*
X15074943Y-12200650D01*
X15074943Y-12200650D02*
X15093991Y-12210174D01*
X15093991Y-12210174D02*
X15103515Y-12229222D01*
X15103515Y-12229222D02*
X15103515Y-12333984D01*
X15493991Y-12124460D02*
X15322563Y-12381603D01*
X15751134Y-12133984D02*
X15770182Y-12133984D01*
X15770182Y-12133984D02*
X15789229Y-12143508D01*
X15789229Y-12143508D02*
X15798753Y-12153031D01*
X15798753Y-12153031D02*
X15808277Y-12172079D01*
X15808277Y-12172079D02*
X15817801Y-12210174D01*
X15817801Y-12210174D02*
X15817801Y-12257793D01*
X15817801Y-12257793D02*
X15808277Y-12295888D01*
X15808277Y-12295888D02*
X15798753Y-12314936D01*
X15798753Y-12314936D02*
X15789229Y-12324460D01*
X15789229Y-12324460D02*
X15770182Y-12333984D01*
X15770182Y-12333984D02*
X15751134Y-12333984D01*
X15751134Y-12333984D02*
X15732086Y-12324460D01*
X15732086Y-12324460D02*
X15722563Y-12314936D01*
X15722563Y-12314936D02*
X15713039Y-12295888D01*
X15713039Y-12295888D02*
X15703515Y-12257793D01*
X15703515Y-12257793D02*
X15703515Y-12210174D01*
X15703515Y-12210174D02*
X15713039Y-12172079D01*
X15713039Y-12172079D02*
X15722563Y-12153031D01*
X15722563Y-12153031D02*
X15732086Y-12143508D01*
X15732086Y-12143508D02*
X15751134Y-12133984D01*
X15903515Y-12314936D02*
X15913039Y-12324460D01*
X15913039Y-12324460D02*
X15903515Y-12333984D01*
X15903515Y-12333984D02*
X15893991Y-12324460D01*
X15893991Y-12324460D02*
X15903515Y-12314936D01*
X15903515Y-12314936D02*
X15903515Y-12333984D01*
X16036848Y-12133984D02*
X16055896Y-12133984D01*
X16055896Y-12133984D02*
X16074944Y-12143508D01*
X16074944Y-12143508D02*
X16084467Y-12153031D01*
X16084467Y-12153031D02*
X16093991Y-12172079D01*
X16093991Y-12172079D02*
X16103515Y-12210174D01*
X16103515Y-12210174D02*
X16103515Y-12257793D01*
X16103515Y-12257793D02*
X16093991Y-12295888D01*
X16093991Y-12295888D02*
X16084467Y-12314936D01*
X16084467Y-12314936D02*
X16074944Y-12324460D01*
X16074944Y-12324460D02*
X16055896Y-12333984D01*
X16055896Y-12333984D02*
X16036848Y-12333984D01*
X16036848Y-12333984D02*
X16017801Y-12324460D01*
X16017801Y-12324460D02*
X16008277Y-12314936D01*
X16008277Y-12314936D02*
X15998753Y-12295888D01*
X15998753Y-12295888D02*
X15989229Y-12257793D01*
X15989229Y-12257793D02*
X15989229Y-12210174D01*
X15989229Y-12210174D02*
X15998753Y-12172079D01*
X15998753Y-12172079D02*
X16008277Y-12153031D01*
X16008277Y-12153031D02*
X16017801Y-12143508D01*
X16017801Y-12143508D02*
X16036848Y-12133984D01*
X16293991Y-12333984D02*
X16179706Y-12333984D01*
X16236848Y-12333984D02*
X16236848Y-12133984D01*
X16236848Y-12133984D02*
X16217801Y-12162555D01*
X16217801Y-12162555D02*
X16198753Y-12181603D01*
X16198753Y-12181603D02*
X16179706Y-12191127D01*
X16484467Y-12333984D02*
X16370182Y-12333984D01*
X16427325Y-12333984D02*
X16427325Y-12133984D01*
X16427325Y-12133984D02*
X16408277Y-12162555D01*
X16408277Y-12162555D02*
X16389229Y-12181603D01*
X16389229Y-12181603D02*
X16370182Y-12191127D01*
X16598753Y-12219698D02*
X16579706Y-12210174D01*
X16579706Y-12210174D02*
X16570182Y-12200650D01*
X16570182Y-12200650D02*
X16560658Y-12181603D01*
X16560658Y-12181603D02*
X16560658Y-12172079D01*
X16560658Y-12172079D02*
X16570182Y-12153031D01*
X16570182Y-12153031D02*
X16579706Y-12143508D01*
X16579706Y-12143508D02*
X16598753Y-12133984D01*
X16598753Y-12133984D02*
X16636848Y-12133984D01*
X16636848Y-12133984D02*
X16655896Y-12143508D01*
X16655896Y-12143508D02*
X16665420Y-12153031D01*
X16665420Y-12153031D02*
X16674944Y-12172079D01*
X16674944Y-12172079D02*
X16674944Y-12181603D01*
X16674944Y-12181603D02*
X16665420Y-12200650D01*
X16665420Y-12200650D02*
X16655896Y-12210174D01*
X16655896Y-12210174D02*
X16636848Y-12219698D01*
X16636848Y-12219698D02*
X16598753Y-12219698D01*
X16598753Y-12219698D02*
X16579706Y-12229222D01*
X16579706Y-12229222D02*
X16570182Y-12238746D01*
X16570182Y-12238746D02*
X16560658Y-12257793D01*
X16560658Y-12257793D02*
X16560658Y-12295888D01*
X16560658Y-12295888D02*
X16570182Y-12314936D01*
X16570182Y-12314936D02*
X16579706Y-12324460D01*
X16579706Y-12324460D02*
X16598753Y-12333984D01*
X16598753Y-12333984D02*
X16636848Y-12333984D01*
X16636848Y-12333984D02*
X16655896Y-12324460D01*
X16655896Y-12324460D02*
X16665420Y-12314936D01*
X16665420Y-12314936D02*
X16674944Y-12295888D01*
X16674944Y-12295888D02*
X16674944Y-12257793D01*
X16674944Y-12257793D02*
X16665420Y-12238746D01*
X16665420Y-12238746D02*
X16655896Y-12229222D01*
X16655896Y-12229222D02*
X16636848Y-12219698D01*
X16751134Y-12133984D02*
X16751134Y-12172079D01*
X16827325Y-12133984D02*
X16827325Y-12172079D01*
X17122563Y-12410174D02*
X17113039Y-12400650D01*
X17113039Y-12400650D02*
X17093991Y-12372079D01*
X17093991Y-12372079D02*
X17084468Y-12353031D01*
X17084468Y-12353031D02*
X17074944Y-12324460D01*
X17074944Y-12324460D02*
X17065420Y-12276841D01*
X17065420Y-12276841D02*
X17065420Y-12238746D01*
X17065420Y-12238746D02*
X17074944Y-12191127D01*
X17074944Y-12191127D02*
X17084468Y-12162555D01*
X17084468Y-12162555D02*
X17093991Y-12143508D01*
X17093991Y-12143508D02*
X17113039Y-12114936D01*
X17113039Y-12114936D02*
X17122563Y-12105412D01*
X17189230Y-12153031D02*
X17198753Y-12143508D01*
X17198753Y-12143508D02*
X17217801Y-12133984D01*
X17217801Y-12133984D02*
X17265420Y-12133984D01*
X17265420Y-12133984D02*
X17284468Y-12143508D01*
X17284468Y-12143508D02*
X17293991Y-12153031D01*
X17293991Y-12153031D02*
X17303515Y-12172079D01*
X17303515Y-12172079D02*
X17303515Y-12191127D01*
X17303515Y-12191127D02*
X17293991Y-12219698D01*
X17293991Y-12219698D02*
X17179706Y-12333984D01*
X17179706Y-12333984D02*
X17303515Y-12333984D01*
X17541611Y-12333984D02*
X17541611Y-12133984D01*
X17627325Y-12333984D02*
X17627325Y-12229222D01*
X17627325Y-12229222D02*
X17617801Y-12210174D01*
X17617801Y-12210174D02*
X17598753Y-12200650D01*
X17598753Y-12200650D02*
X17570182Y-12200650D01*
X17570182Y-12200650D02*
X17551134Y-12210174D01*
X17551134Y-12210174D02*
X17541611Y-12219698D01*
X17751134Y-12333984D02*
X17732087Y-12324460D01*
X17732087Y-12324460D02*
X17722563Y-12314936D01*
X17722563Y-12314936D02*
X17713039Y-12295888D01*
X17713039Y-12295888D02*
X17713039Y-12238746D01*
X17713039Y-12238746D02*
X17722563Y-12219698D01*
X17722563Y-12219698D02*
X17732087Y-12210174D01*
X17732087Y-12210174D02*
X17751134Y-12200650D01*
X17751134Y-12200650D02*
X17779706Y-12200650D01*
X17779706Y-12200650D02*
X17798753Y-12210174D01*
X17798753Y-12210174D02*
X17808277Y-12219698D01*
X17808277Y-12219698D02*
X17817801Y-12238746D01*
X17817801Y-12238746D02*
X17817801Y-12295888D01*
X17817801Y-12295888D02*
X17808277Y-12314936D01*
X17808277Y-12314936D02*
X17798753Y-12324460D01*
X17798753Y-12324460D02*
X17779706Y-12333984D01*
X17779706Y-12333984D02*
X17751134Y-12333984D01*
X17932087Y-12333984D02*
X17913039Y-12324460D01*
X17913039Y-12324460D02*
X17903515Y-12305412D01*
X17903515Y-12305412D02*
X17903515Y-12133984D01*
X18084468Y-12324460D02*
X18065420Y-12333984D01*
X18065420Y-12333984D02*
X18027325Y-12333984D01*
X18027325Y-12333984D02*
X18008277Y-12324460D01*
X18008277Y-12324460D02*
X17998753Y-12305412D01*
X17998753Y-12305412D02*
X17998753Y-12229222D01*
X17998753Y-12229222D02*
X18008277Y-12210174D01*
X18008277Y-12210174D02*
X18027325Y-12200650D01*
X18027325Y-12200650D02*
X18065420Y-12200650D01*
X18065420Y-12200650D02*
X18084468Y-12210174D01*
X18084468Y-12210174D02*
X18093992Y-12229222D01*
X18093992Y-12229222D02*
X18093992Y-12248269D01*
X18093992Y-12248269D02*
X17998753Y-12267317D01*
X18170182Y-12324460D02*
X18189230Y-12333984D01*
X18189230Y-12333984D02*
X18227325Y-12333984D01*
X18227325Y-12333984D02*
X18246373Y-12324460D01*
X18246373Y-12324460D02*
X18255896Y-12305412D01*
X18255896Y-12305412D02*
X18255896Y-12295888D01*
X18255896Y-12295888D02*
X18246373Y-12276841D01*
X18246373Y-12276841D02*
X18227325Y-12267317D01*
X18227325Y-12267317D02*
X18198753Y-12267317D01*
X18198753Y-12267317D02*
X18179706Y-12257793D01*
X18179706Y-12257793D02*
X18170182Y-12238746D01*
X18170182Y-12238746D02*
X18170182Y-12229222D01*
X18170182Y-12229222D02*
X18179706Y-12210174D01*
X18179706Y-12210174D02*
X18198753Y-12200650D01*
X18198753Y-12200650D02*
X18227325Y-12200650D01*
X18227325Y-12200650D02*
X18246373Y-12210174D01*
X18322563Y-12410174D02*
X18332087Y-12400650D01*
X18332087Y-12400650D02*
X18351134Y-12372079D01*
X18351134Y-12372079D02*
X18360658Y-12353031D01*
X18360658Y-12353031D02*
X18370182Y-12324460D01*
X18370182Y-12324460D02*
X18379706Y-12276841D01*
X18379706Y-12276841D02*
X18379706Y-12238746D01*
X18379706Y-12238746D02*
X18370182Y-12191127D01*
X18370182Y-12191127D02*
X18360658Y-12162555D01*
X18360658Y-12162555D02*
X18351134Y-12143508D01*
X18351134Y-12143508D02*
X18332087Y-12114936D01*
X18332087Y-12114936D02*
X18322563Y-12105412D01*
D12*
X13547500Y-12506500D02*
G75*
G02*
X13467500Y-12506500I-40000J0D01*
G01*
X13467500Y-12506500D02*
G75*
G02*
X13547500Y-12506500I40000J0D01*
G01*
D11*
X13846372Y-12397984D02*
X13865420Y-12397984D01*
X13865420Y-12397984D02*
X13884467Y-12407508D01*
X13884467Y-12407508D02*
X13893991Y-12417031D01*
X13893991Y-12417031D02*
X13903515Y-12436079D01*
X13903515Y-12436079D02*
X13913039Y-12474174D01*
X13913039Y-12474174D02*
X13913039Y-12521793D01*
X13913039Y-12521793D02*
X13903515Y-12559888D01*
X13903515Y-12559888D02*
X13893991Y-12578936D01*
X13893991Y-12578936D02*
X13884467Y-12588460D01*
X13884467Y-12588460D02*
X13865420Y-12597984D01*
X13865420Y-12597984D02*
X13846372Y-12597984D01*
X13846372Y-12597984D02*
X13827324Y-12588460D01*
X13827324Y-12588460D02*
X13817801Y-12578936D01*
X13817801Y-12578936D02*
X13808277Y-12559888D01*
X13808277Y-12559888D02*
X13798753Y-12521793D01*
X13798753Y-12521793D02*
X13798753Y-12474174D01*
X13798753Y-12474174D02*
X13808277Y-12436079D01*
X13808277Y-12436079D02*
X13817801Y-12417031D01*
X13817801Y-12417031D02*
X13827324Y-12407508D01*
X13827324Y-12407508D02*
X13846372Y-12397984D01*
X13998753Y-12578936D02*
X14008277Y-12588460D01*
X14008277Y-12588460D02*
X13998753Y-12597984D01*
X13998753Y-12597984D02*
X13989229Y-12588460D01*
X13989229Y-12588460D02*
X13998753Y-12578936D01*
X13998753Y-12578936D02*
X13998753Y-12597984D01*
X14122562Y-12483698D02*
X14103515Y-12474174D01*
X14103515Y-12474174D02*
X14093991Y-12464650D01*
X14093991Y-12464650D02*
X14084467Y-12445603D01*
X14084467Y-12445603D02*
X14084467Y-12436079D01*
X14084467Y-12436079D02*
X14093991Y-12417031D01*
X14093991Y-12417031D02*
X14103515Y-12407508D01*
X14103515Y-12407508D02*
X14122562Y-12397984D01*
X14122562Y-12397984D02*
X14160658Y-12397984D01*
X14160658Y-12397984D02*
X14179705Y-12407508D01*
X14179705Y-12407508D02*
X14189229Y-12417031D01*
X14189229Y-12417031D02*
X14198753Y-12436079D01*
X14198753Y-12436079D02*
X14198753Y-12445603D01*
X14198753Y-12445603D02*
X14189229Y-12464650D01*
X14189229Y-12464650D02*
X14179705Y-12474174D01*
X14179705Y-12474174D02*
X14160658Y-12483698D01*
X14160658Y-12483698D02*
X14122562Y-12483698D01*
X14122562Y-12483698D02*
X14103515Y-12493222D01*
X14103515Y-12493222D02*
X14093991Y-12502746D01*
X14093991Y-12502746D02*
X14084467Y-12521793D01*
X14084467Y-12521793D02*
X14084467Y-12559888D01*
X14084467Y-12559888D02*
X14093991Y-12578936D01*
X14093991Y-12578936D02*
X14103515Y-12588460D01*
X14103515Y-12588460D02*
X14122562Y-12597984D01*
X14122562Y-12597984D02*
X14160658Y-12597984D01*
X14160658Y-12597984D02*
X14179705Y-12588460D01*
X14179705Y-12588460D02*
X14189229Y-12578936D01*
X14189229Y-12578936D02*
X14198753Y-12559888D01*
X14198753Y-12559888D02*
X14198753Y-12521793D01*
X14198753Y-12521793D02*
X14189229Y-12502746D01*
X14189229Y-12502746D02*
X14179705Y-12493222D01*
X14179705Y-12493222D02*
X14160658Y-12483698D01*
X14322562Y-12397984D02*
X14341610Y-12397984D01*
X14341610Y-12397984D02*
X14360658Y-12407508D01*
X14360658Y-12407508D02*
X14370182Y-12417031D01*
X14370182Y-12417031D02*
X14379705Y-12436079D01*
X14379705Y-12436079D02*
X14389229Y-12474174D01*
X14389229Y-12474174D02*
X14389229Y-12521793D01*
X14389229Y-12521793D02*
X14379705Y-12559888D01*
X14379705Y-12559888D02*
X14370182Y-12578936D01*
X14370182Y-12578936D02*
X14360658Y-12588460D01*
X14360658Y-12588460D02*
X14341610Y-12597984D01*
X14341610Y-12597984D02*
X14322562Y-12597984D01*
X14322562Y-12597984D02*
X14303515Y-12588460D01*
X14303515Y-12588460D02*
X14293991Y-12578936D01*
X14293991Y-12578936D02*
X14284467Y-12559888D01*
X14284467Y-12559888D02*
X14274943Y-12521793D01*
X14274943Y-12521793D02*
X14274943Y-12474174D01*
X14274943Y-12474174D02*
X14284467Y-12436079D01*
X14284467Y-12436079D02*
X14293991Y-12417031D01*
X14293991Y-12417031D02*
X14303515Y-12407508D01*
X14303515Y-12407508D02*
X14322562Y-12397984D01*
X14513039Y-12397984D02*
X14532086Y-12397984D01*
X14532086Y-12397984D02*
X14551134Y-12407508D01*
X14551134Y-12407508D02*
X14560658Y-12417031D01*
X14560658Y-12417031D02*
X14570182Y-12436079D01*
X14570182Y-12436079D02*
X14579705Y-12474174D01*
X14579705Y-12474174D02*
X14579705Y-12521793D01*
X14579705Y-12521793D02*
X14570182Y-12559888D01*
X14570182Y-12559888D02*
X14560658Y-12578936D01*
X14560658Y-12578936D02*
X14551134Y-12588460D01*
X14551134Y-12588460D02*
X14532086Y-12597984D01*
X14532086Y-12597984D02*
X14513039Y-12597984D01*
X14513039Y-12597984D02*
X14493991Y-12588460D01*
X14493991Y-12588460D02*
X14484467Y-12578936D01*
X14484467Y-12578936D02*
X14474943Y-12559888D01*
X14474943Y-12559888D02*
X14465420Y-12521793D01*
X14465420Y-12521793D02*
X14465420Y-12474174D01*
X14465420Y-12474174D02*
X14474943Y-12436079D01*
X14474943Y-12436079D02*
X14484467Y-12417031D01*
X14484467Y-12417031D02*
X14493991Y-12407508D01*
X14493991Y-12407508D02*
X14513039Y-12397984D01*
X14665420Y-12597984D02*
X14665420Y-12464650D01*
X14665420Y-12483698D02*
X14674943Y-12474174D01*
X14674943Y-12474174D02*
X14693991Y-12464650D01*
X14693991Y-12464650D02*
X14722563Y-12464650D01*
X14722563Y-12464650D02*
X14741610Y-12474174D01*
X14741610Y-12474174D02*
X14751134Y-12493222D01*
X14751134Y-12493222D02*
X14751134Y-12597984D01*
X14751134Y-12493222D02*
X14760658Y-12474174D01*
X14760658Y-12474174D02*
X14779705Y-12464650D01*
X14779705Y-12464650D02*
X14808277Y-12464650D01*
X14808277Y-12464650D02*
X14827324Y-12474174D01*
X14827324Y-12474174D02*
X14836848Y-12493222D01*
X14836848Y-12493222D02*
X14836848Y-12597984D01*
X14932086Y-12597984D02*
X14932086Y-12464650D01*
X14932086Y-12483698D02*
X14941610Y-12474174D01*
X14941610Y-12474174D02*
X14960658Y-12464650D01*
X14960658Y-12464650D02*
X14989229Y-12464650D01*
X14989229Y-12464650D02*
X15008277Y-12474174D01*
X15008277Y-12474174D02*
X15017801Y-12493222D01*
X15017801Y-12493222D02*
X15017801Y-12597984D01*
X15017801Y-12493222D02*
X15027324Y-12474174D01*
X15027324Y-12474174D02*
X15046372Y-12464650D01*
X15046372Y-12464650D02*
X15074943Y-12464650D01*
X15074943Y-12464650D02*
X15093991Y-12474174D01*
X15093991Y-12474174D02*
X15103515Y-12493222D01*
X15103515Y-12493222D02*
X15103515Y-12597984D01*
X15493991Y-12388460D02*
X15322563Y-12645603D01*
X15751134Y-12397984D02*
X15770182Y-12397984D01*
X15770182Y-12397984D02*
X15789229Y-12407508D01*
X15789229Y-12407508D02*
X15798753Y-12417031D01*
X15798753Y-12417031D02*
X15808277Y-12436079D01*
X15808277Y-12436079D02*
X15817801Y-12474174D01*
X15817801Y-12474174D02*
X15817801Y-12521793D01*
X15817801Y-12521793D02*
X15808277Y-12559888D01*
X15808277Y-12559888D02*
X15798753Y-12578936D01*
X15798753Y-12578936D02*
X15789229Y-12588460D01*
X15789229Y-12588460D02*
X15770182Y-12597984D01*
X15770182Y-12597984D02*
X15751134Y-12597984D01*
X15751134Y-12597984D02*
X15732086Y-12588460D01*
X15732086Y-12588460D02*
X15722563Y-12578936D01*
X15722563Y-12578936D02*
X15713039Y-12559888D01*
X15713039Y-12559888D02*
X15703515Y-12521793D01*
X15703515Y-12521793D02*
X15703515Y-12474174D01*
X15703515Y-12474174D02*
X15713039Y-12436079D01*
X15713039Y-12436079D02*
X15722563Y-12417031D01*
X15722563Y-12417031D02*
X15732086Y-12407508D01*
X15732086Y-12407508D02*
X15751134Y-12397984D01*
X15903515Y-12578936D02*
X15913039Y-12588460D01*
X15913039Y-12588460D02*
X15903515Y-12597984D01*
X15903515Y-12597984D02*
X15893991Y-12588460D01*
X15893991Y-12588460D02*
X15903515Y-12578936D01*
X15903515Y-12578936D02*
X15903515Y-12597984D01*
X16036848Y-12397984D02*
X16055896Y-12397984D01*
X16055896Y-12397984D02*
X16074944Y-12407508D01*
X16074944Y-12407508D02*
X16084467Y-12417031D01*
X16084467Y-12417031D02*
X16093991Y-12436079D01*
X16093991Y-12436079D02*
X16103515Y-12474174D01*
X16103515Y-12474174D02*
X16103515Y-12521793D01*
X16103515Y-12521793D02*
X16093991Y-12559888D01*
X16093991Y-12559888D02*
X16084467Y-12578936D01*
X16084467Y-12578936D02*
X16074944Y-12588460D01*
X16074944Y-12588460D02*
X16055896Y-12597984D01*
X16055896Y-12597984D02*
X16036848Y-12597984D01*
X16036848Y-12597984D02*
X16017801Y-12588460D01*
X16017801Y-12588460D02*
X16008277Y-12578936D01*
X16008277Y-12578936D02*
X15998753Y-12559888D01*
X15998753Y-12559888D02*
X15989229Y-12521793D01*
X15989229Y-12521793D02*
X15989229Y-12474174D01*
X15989229Y-12474174D02*
X15998753Y-12436079D01*
X15998753Y-12436079D02*
X16008277Y-12417031D01*
X16008277Y-12417031D02*
X16017801Y-12407508D01*
X16017801Y-12407508D02*
X16036848Y-12397984D01*
X16170182Y-12397984D02*
X16293991Y-12397984D01*
X16293991Y-12397984D02*
X16227325Y-12474174D01*
X16227325Y-12474174D02*
X16255896Y-12474174D01*
X16255896Y-12474174D02*
X16274944Y-12483698D01*
X16274944Y-12483698D02*
X16284467Y-12493222D01*
X16284467Y-12493222D02*
X16293991Y-12512269D01*
X16293991Y-12512269D02*
X16293991Y-12559888D01*
X16293991Y-12559888D02*
X16284467Y-12578936D01*
X16284467Y-12578936D02*
X16274944Y-12588460D01*
X16274944Y-12588460D02*
X16255896Y-12597984D01*
X16255896Y-12597984D02*
X16198753Y-12597984D01*
X16198753Y-12597984D02*
X16179706Y-12588460D01*
X16179706Y-12588460D02*
X16170182Y-12578936D01*
X16484467Y-12597984D02*
X16370182Y-12597984D01*
X16427325Y-12597984D02*
X16427325Y-12397984D01*
X16427325Y-12397984D02*
X16408277Y-12426555D01*
X16408277Y-12426555D02*
X16389229Y-12445603D01*
X16389229Y-12445603D02*
X16370182Y-12455127D01*
X16665420Y-12397984D02*
X16570182Y-12397984D01*
X16570182Y-12397984D02*
X16560658Y-12493222D01*
X16560658Y-12493222D02*
X16570182Y-12483698D01*
X16570182Y-12483698D02*
X16589229Y-12474174D01*
X16589229Y-12474174D02*
X16636848Y-12474174D01*
X16636848Y-12474174D02*
X16655896Y-12483698D01*
X16655896Y-12483698D02*
X16665420Y-12493222D01*
X16665420Y-12493222D02*
X16674944Y-12512269D01*
X16674944Y-12512269D02*
X16674944Y-12559888D01*
X16674944Y-12559888D02*
X16665420Y-12578936D01*
X16665420Y-12578936D02*
X16655896Y-12588460D01*
X16655896Y-12588460D02*
X16636848Y-12597984D01*
X16636848Y-12597984D02*
X16589229Y-12597984D01*
X16589229Y-12597984D02*
X16570182Y-12588460D01*
X16570182Y-12588460D02*
X16560658Y-12578936D01*
X16751134Y-12397984D02*
X16751134Y-12436079D01*
X16827325Y-12397984D02*
X16827325Y-12436079D01*
X17122563Y-12674174D02*
X17113039Y-12664650D01*
X17113039Y-12664650D02*
X17093991Y-12636079D01*
X17093991Y-12636079D02*
X17084468Y-12617031D01*
X17084468Y-12617031D02*
X17074944Y-12588460D01*
X17074944Y-12588460D02*
X17065420Y-12540841D01*
X17065420Y-12540841D02*
X17065420Y-12502746D01*
X17065420Y-12502746D02*
X17074944Y-12455127D01*
X17074944Y-12455127D02*
X17084468Y-12426555D01*
X17084468Y-12426555D02*
X17093991Y-12407508D01*
X17093991Y-12407508D02*
X17113039Y-12378936D01*
X17113039Y-12378936D02*
X17122563Y-12369412D01*
X17303515Y-12597984D02*
X17189230Y-12597984D01*
X17246372Y-12597984D02*
X17246372Y-12397984D01*
X17246372Y-12397984D02*
X17227325Y-12426555D01*
X17227325Y-12426555D02*
X17208277Y-12445603D01*
X17208277Y-12445603D02*
X17189230Y-12455127D01*
X17493991Y-12597984D02*
X17379706Y-12597984D01*
X17436849Y-12597984D02*
X17436849Y-12397984D01*
X17436849Y-12397984D02*
X17417801Y-12426555D01*
X17417801Y-12426555D02*
X17398753Y-12445603D01*
X17398753Y-12445603D02*
X17379706Y-12455127D01*
X17732087Y-12597984D02*
X17732087Y-12397984D01*
X17817801Y-12597984D02*
X17817801Y-12493222D01*
X17817801Y-12493222D02*
X17808277Y-12474174D01*
X17808277Y-12474174D02*
X17789230Y-12464650D01*
X17789230Y-12464650D02*
X17760658Y-12464650D01*
X17760658Y-12464650D02*
X17741611Y-12474174D01*
X17741611Y-12474174D02*
X17732087Y-12483698D01*
X17941611Y-12597984D02*
X17922563Y-12588460D01*
X17922563Y-12588460D02*
X17913039Y-12578936D01*
X17913039Y-12578936D02*
X17903515Y-12559888D01*
X17903515Y-12559888D02*
X17903515Y-12502746D01*
X17903515Y-12502746D02*
X17913039Y-12483698D01*
X17913039Y-12483698D02*
X17922563Y-12474174D01*
X17922563Y-12474174D02*
X17941611Y-12464650D01*
X17941611Y-12464650D02*
X17970182Y-12464650D01*
X17970182Y-12464650D02*
X17989230Y-12474174D01*
X17989230Y-12474174D02*
X17998753Y-12483698D01*
X17998753Y-12483698D02*
X18008277Y-12502746D01*
X18008277Y-12502746D02*
X18008277Y-12559888D01*
X18008277Y-12559888D02*
X17998753Y-12578936D01*
X17998753Y-12578936D02*
X17989230Y-12588460D01*
X17989230Y-12588460D02*
X17970182Y-12597984D01*
X17970182Y-12597984D02*
X17941611Y-12597984D01*
X18122563Y-12597984D02*
X18103515Y-12588460D01*
X18103515Y-12588460D02*
X18093992Y-12569412D01*
X18093992Y-12569412D02*
X18093992Y-12397984D01*
X18274944Y-12588460D02*
X18255896Y-12597984D01*
X18255896Y-12597984D02*
X18217801Y-12597984D01*
X18217801Y-12597984D02*
X18198753Y-12588460D01*
X18198753Y-12588460D02*
X18189230Y-12569412D01*
X18189230Y-12569412D02*
X18189230Y-12493222D01*
X18189230Y-12493222D02*
X18198753Y-12474174D01*
X18198753Y-12474174D02*
X18217801Y-12464650D01*
X18217801Y-12464650D02*
X18255896Y-12464650D01*
X18255896Y-12464650D02*
X18274944Y-12474174D01*
X18274944Y-12474174D02*
X18284468Y-12493222D01*
X18284468Y-12493222D02*
X18284468Y-12512269D01*
X18284468Y-12512269D02*
X18189230Y-12531317D01*
X18360658Y-12588460D02*
X18379706Y-12597984D01*
X18379706Y-12597984D02*
X18417801Y-12597984D01*
X18417801Y-12597984D02*
X18436849Y-12588460D01*
X18436849Y-12588460D02*
X18446373Y-12569412D01*
X18446373Y-12569412D02*
X18446373Y-12559888D01*
X18446373Y-12559888D02*
X18436849Y-12540841D01*
X18436849Y-12540841D02*
X18417801Y-12531317D01*
X18417801Y-12531317D02*
X18389230Y-12531317D01*
X18389230Y-12531317D02*
X18370182Y-12521793D01*
X18370182Y-12521793D02*
X18360658Y-12502746D01*
X18360658Y-12502746D02*
X18360658Y-12493222D01*
X18360658Y-12493222D02*
X18370182Y-12474174D01*
X18370182Y-12474174D02*
X18389230Y-12464650D01*
X18389230Y-12464650D02*
X18417801Y-12464650D01*
X18417801Y-12464650D02*
X18436849Y-12474174D01*
X18513039Y-12674174D02*
X18522563Y-12664650D01*
X18522563Y-12664650D02*
X18541611Y-12636079D01*
X18541611Y-12636079D02*
X18551134Y-12617031D01*
X18551134Y-12617031D02*
X18560658Y-12588460D01*
X18560658Y-12588460D02*
X18570182Y-12540841D01*
X18570182Y-12540841D02*
X18570182Y-12502746D01*
X18570182Y-12502746D02*
X18560658Y-12455127D01*
X18560658Y-12455127D02*
X18551134Y-12426555D01*
X18551134Y-12426555D02*
X18541611Y-12407508D01*
X18541611Y-12407508D02*
X18522563Y-12378936D01*
X18522563Y-12378936D02*
X18513039Y-12369412D01*
D12*
X13502500Y-12725500D02*
X13502500Y-12815500D01*
X13457500Y-12770500D02*
X13547500Y-12770500D01*
D11*
X13846372Y-12661984D02*
X13865420Y-12661984D01*
X13865420Y-12661984D02*
X13884467Y-12671508D01*
X13884467Y-12671508D02*
X13893991Y-12681031D01*
X13893991Y-12681031D02*
X13903515Y-12700079D01*
X13903515Y-12700079D02*
X13913039Y-12738174D01*
X13913039Y-12738174D02*
X13913039Y-12785793D01*
X13913039Y-12785793D02*
X13903515Y-12823888D01*
X13903515Y-12823888D02*
X13893991Y-12842936D01*
X13893991Y-12842936D02*
X13884467Y-12852460D01*
X13884467Y-12852460D02*
X13865420Y-12861984D01*
X13865420Y-12861984D02*
X13846372Y-12861984D01*
X13846372Y-12861984D02*
X13827324Y-12852460D01*
X13827324Y-12852460D02*
X13817801Y-12842936D01*
X13817801Y-12842936D02*
X13808277Y-12823888D01*
X13808277Y-12823888D02*
X13798753Y-12785793D01*
X13798753Y-12785793D02*
X13798753Y-12738174D01*
X13798753Y-12738174D02*
X13808277Y-12700079D01*
X13808277Y-12700079D02*
X13817801Y-12681031D01*
X13817801Y-12681031D02*
X13827324Y-12671508D01*
X13827324Y-12671508D02*
X13846372Y-12661984D01*
X13998753Y-12842936D02*
X14008277Y-12852460D01*
X14008277Y-12852460D02*
X13998753Y-12861984D01*
X13998753Y-12861984D02*
X13989229Y-12852460D01*
X13989229Y-12852460D02*
X13998753Y-12842936D01*
X13998753Y-12842936D02*
X13998753Y-12861984D01*
X14103515Y-12861984D02*
X14141610Y-12861984D01*
X14141610Y-12861984D02*
X14160658Y-12852460D01*
X14160658Y-12852460D02*
X14170182Y-12842936D01*
X14170182Y-12842936D02*
X14189229Y-12814365D01*
X14189229Y-12814365D02*
X14198753Y-12776269D01*
X14198753Y-12776269D02*
X14198753Y-12700079D01*
X14198753Y-12700079D02*
X14189229Y-12681031D01*
X14189229Y-12681031D02*
X14179705Y-12671508D01*
X14179705Y-12671508D02*
X14160658Y-12661984D01*
X14160658Y-12661984D02*
X14122562Y-12661984D01*
X14122562Y-12661984D02*
X14103515Y-12671508D01*
X14103515Y-12671508D02*
X14093991Y-12681031D01*
X14093991Y-12681031D02*
X14084467Y-12700079D01*
X14084467Y-12700079D02*
X14084467Y-12747698D01*
X14084467Y-12747698D02*
X14093991Y-12766746D01*
X14093991Y-12766746D02*
X14103515Y-12776269D01*
X14103515Y-12776269D02*
X14122562Y-12785793D01*
X14122562Y-12785793D02*
X14160658Y-12785793D01*
X14160658Y-12785793D02*
X14179705Y-12776269D01*
X14179705Y-12776269D02*
X14189229Y-12766746D01*
X14189229Y-12766746D02*
X14198753Y-12747698D01*
X14322562Y-12661984D02*
X14341610Y-12661984D01*
X14341610Y-12661984D02*
X14360658Y-12671508D01*
X14360658Y-12671508D02*
X14370182Y-12681031D01*
X14370182Y-12681031D02*
X14379705Y-12700079D01*
X14379705Y-12700079D02*
X14389229Y-12738174D01*
X14389229Y-12738174D02*
X14389229Y-12785793D01*
X14389229Y-12785793D02*
X14379705Y-12823888D01*
X14379705Y-12823888D02*
X14370182Y-12842936D01*
X14370182Y-12842936D02*
X14360658Y-12852460D01*
X14360658Y-12852460D02*
X14341610Y-12861984D01*
X14341610Y-12861984D02*
X14322562Y-12861984D01*
X14322562Y-12861984D02*
X14303515Y-12852460D01*
X14303515Y-12852460D02*
X14293991Y-12842936D01*
X14293991Y-12842936D02*
X14284467Y-12823888D01*
X14284467Y-12823888D02*
X14274943Y-12785793D01*
X14274943Y-12785793D02*
X14274943Y-12738174D01*
X14274943Y-12738174D02*
X14284467Y-12700079D01*
X14284467Y-12700079D02*
X14293991Y-12681031D01*
X14293991Y-12681031D02*
X14303515Y-12671508D01*
X14303515Y-12671508D02*
X14322562Y-12661984D01*
X14513039Y-12661984D02*
X14532086Y-12661984D01*
X14532086Y-12661984D02*
X14551134Y-12671508D01*
X14551134Y-12671508D02*
X14560658Y-12681031D01*
X14560658Y-12681031D02*
X14570182Y-12700079D01*
X14570182Y-12700079D02*
X14579705Y-12738174D01*
X14579705Y-12738174D02*
X14579705Y-12785793D01*
X14579705Y-12785793D02*
X14570182Y-12823888D01*
X14570182Y-12823888D02*
X14560658Y-12842936D01*
X14560658Y-12842936D02*
X14551134Y-12852460D01*
X14551134Y-12852460D02*
X14532086Y-12861984D01*
X14532086Y-12861984D02*
X14513039Y-12861984D01*
X14513039Y-12861984D02*
X14493991Y-12852460D01*
X14493991Y-12852460D02*
X14484467Y-12842936D01*
X14484467Y-12842936D02*
X14474943Y-12823888D01*
X14474943Y-12823888D02*
X14465420Y-12785793D01*
X14465420Y-12785793D02*
X14465420Y-12738174D01*
X14465420Y-12738174D02*
X14474943Y-12700079D01*
X14474943Y-12700079D02*
X14484467Y-12681031D01*
X14484467Y-12681031D02*
X14493991Y-12671508D01*
X14493991Y-12671508D02*
X14513039Y-12661984D01*
X14665420Y-12861984D02*
X14665420Y-12728650D01*
X14665420Y-12747698D02*
X14674943Y-12738174D01*
X14674943Y-12738174D02*
X14693991Y-12728650D01*
X14693991Y-12728650D02*
X14722563Y-12728650D01*
X14722563Y-12728650D02*
X14741610Y-12738174D01*
X14741610Y-12738174D02*
X14751134Y-12757222D01*
X14751134Y-12757222D02*
X14751134Y-12861984D01*
X14751134Y-12757222D02*
X14760658Y-12738174D01*
X14760658Y-12738174D02*
X14779705Y-12728650D01*
X14779705Y-12728650D02*
X14808277Y-12728650D01*
X14808277Y-12728650D02*
X14827324Y-12738174D01*
X14827324Y-12738174D02*
X14836848Y-12757222D01*
X14836848Y-12757222D02*
X14836848Y-12861984D01*
X14932086Y-12861984D02*
X14932086Y-12728650D01*
X14932086Y-12747698D02*
X14941610Y-12738174D01*
X14941610Y-12738174D02*
X14960658Y-12728650D01*
X14960658Y-12728650D02*
X14989229Y-12728650D01*
X14989229Y-12728650D02*
X15008277Y-12738174D01*
X15008277Y-12738174D02*
X15017801Y-12757222D01*
X15017801Y-12757222D02*
X15017801Y-12861984D01*
X15017801Y-12757222D02*
X15027324Y-12738174D01*
X15027324Y-12738174D02*
X15046372Y-12728650D01*
X15046372Y-12728650D02*
X15074943Y-12728650D01*
X15074943Y-12728650D02*
X15093991Y-12738174D01*
X15093991Y-12738174D02*
X15103515Y-12757222D01*
X15103515Y-12757222D02*
X15103515Y-12861984D01*
X15493991Y-12652460D02*
X15322563Y-12909603D01*
X15751134Y-12661984D02*
X15770182Y-12661984D01*
X15770182Y-12661984D02*
X15789229Y-12671508D01*
X15789229Y-12671508D02*
X15798753Y-12681031D01*
X15798753Y-12681031D02*
X15808277Y-12700079D01*
X15808277Y-12700079D02*
X15817801Y-12738174D01*
X15817801Y-12738174D02*
X15817801Y-12785793D01*
X15817801Y-12785793D02*
X15808277Y-12823888D01*
X15808277Y-12823888D02*
X15798753Y-12842936D01*
X15798753Y-12842936D02*
X15789229Y-12852460D01*
X15789229Y-12852460D02*
X15770182Y-12861984D01*
X15770182Y-12861984D02*
X15751134Y-12861984D01*
X15751134Y-12861984D02*
X15732086Y-12852460D01*
X15732086Y-12852460D02*
X15722563Y-12842936D01*
X15722563Y-12842936D02*
X15713039Y-12823888D01*
X15713039Y-12823888D02*
X15703515Y-12785793D01*
X15703515Y-12785793D02*
X15703515Y-12738174D01*
X15703515Y-12738174D02*
X15713039Y-12700079D01*
X15713039Y-12700079D02*
X15722563Y-12681031D01*
X15722563Y-12681031D02*
X15732086Y-12671508D01*
X15732086Y-12671508D02*
X15751134Y-12661984D01*
X15903515Y-12842936D02*
X15913039Y-12852460D01*
X15913039Y-12852460D02*
X15903515Y-12861984D01*
X15903515Y-12861984D02*
X15893991Y-12852460D01*
X15893991Y-12852460D02*
X15903515Y-12842936D01*
X15903515Y-12842936D02*
X15903515Y-12861984D01*
X16036848Y-12661984D02*
X16055896Y-12661984D01*
X16055896Y-12661984D02*
X16074944Y-12671508D01*
X16074944Y-12671508D02*
X16084467Y-12681031D01*
X16084467Y-12681031D02*
X16093991Y-12700079D01*
X16093991Y-12700079D02*
X16103515Y-12738174D01*
X16103515Y-12738174D02*
X16103515Y-12785793D01*
X16103515Y-12785793D02*
X16093991Y-12823888D01*
X16093991Y-12823888D02*
X16084467Y-12842936D01*
X16084467Y-12842936D02*
X16074944Y-12852460D01*
X16074944Y-12852460D02*
X16055896Y-12861984D01*
X16055896Y-12861984D02*
X16036848Y-12861984D01*
X16036848Y-12861984D02*
X16017801Y-12852460D01*
X16017801Y-12852460D02*
X16008277Y-12842936D01*
X16008277Y-12842936D02*
X15998753Y-12823888D01*
X15998753Y-12823888D02*
X15989229Y-12785793D01*
X15989229Y-12785793D02*
X15989229Y-12738174D01*
X15989229Y-12738174D02*
X15998753Y-12700079D01*
X15998753Y-12700079D02*
X16008277Y-12681031D01*
X16008277Y-12681031D02*
X16017801Y-12671508D01*
X16017801Y-12671508D02*
X16036848Y-12661984D01*
X16170182Y-12661984D02*
X16293991Y-12661984D01*
X16293991Y-12661984D02*
X16227325Y-12738174D01*
X16227325Y-12738174D02*
X16255896Y-12738174D01*
X16255896Y-12738174D02*
X16274944Y-12747698D01*
X16274944Y-12747698D02*
X16284467Y-12757222D01*
X16284467Y-12757222D02*
X16293991Y-12776269D01*
X16293991Y-12776269D02*
X16293991Y-12823888D01*
X16293991Y-12823888D02*
X16284467Y-12842936D01*
X16284467Y-12842936D02*
X16274944Y-12852460D01*
X16274944Y-12852460D02*
X16255896Y-12861984D01*
X16255896Y-12861984D02*
X16198753Y-12861984D01*
X16198753Y-12861984D02*
X16179706Y-12852460D01*
X16179706Y-12852460D02*
X16170182Y-12842936D01*
X16474944Y-12661984D02*
X16379706Y-12661984D01*
X16379706Y-12661984D02*
X16370182Y-12757222D01*
X16370182Y-12757222D02*
X16379706Y-12747698D01*
X16379706Y-12747698D02*
X16398753Y-12738174D01*
X16398753Y-12738174D02*
X16446372Y-12738174D01*
X16446372Y-12738174D02*
X16465420Y-12747698D01*
X16465420Y-12747698D02*
X16474944Y-12757222D01*
X16474944Y-12757222D02*
X16484467Y-12776269D01*
X16484467Y-12776269D02*
X16484467Y-12823888D01*
X16484467Y-12823888D02*
X16474944Y-12842936D01*
X16474944Y-12842936D02*
X16465420Y-12852460D01*
X16465420Y-12852460D02*
X16446372Y-12861984D01*
X16446372Y-12861984D02*
X16398753Y-12861984D01*
X16398753Y-12861984D02*
X16379706Y-12852460D01*
X16379706Y-12852460D02*
X16370182Y-12842936D01*
X16655896Y-12728650D02*
X16655896Y-12861984D01*
X16608277Y-12652460D02*
X16560658Y-12795317D01*
X16560658Y-12795317D02*
X16684467Y-12795317D01*
X16751134Y-12661984D02*
X16751134Y-12700079D01*
X16827325Y-12661984D02*
X16827325Y-12700079D01*
X17122563Y-12938174D02*
X17113039Y-12928650D01*
X17113039Y-12928650D02*
X17093991Y-12900079D01*
X17093991Y-12900079D02*
X17084468Y-12881031D01*
X17084468Y-12881031D02*
X17074944Y-12852460D01*
X17074944Y-12852460D02*
X17065420Y-12804841D01*
X17065420Y-12804841D02*
X17065420Y-12766746D01*
X17065420Y-12766746D02*
X17074944Y-12719127D01*
X17074944Y-12719127D02*
X17084468Y-12690555D01*
X17084468Y-12690555D02*
X17093991Y-12671508D01*
X17093991Y-12671508D02*
X17113039Y-12642936D01*
X17113039Y-12642936D02*
X17122563Y-12633412D01*
X17227325Y-12747698D02*
X17208277Y-12738174D01*
X17208277Y-12738174D02*
X17198753Y-12728650D01*
X17198753Y-12728650D02*
X17189230Y-12709603D01*
X17189230Y-12709603D02*
X17189230Y-12700079D01*
X17189230Y-12700079D02*
X17198753Y-12681031D01*
X17198753Y-12681031D02*
X17208277Y-12671508D01*
X17208277Y-12671508D02*
X17227325Y-12661984D01*
X17227325Y-12661984D02*
X17265420Y-12661984D01*
X17265420Y-12661984D02*
X17284468Y-12671508D01*
X17284468Y-12671508D02*
X17293991Y-12681031D01*
X17293991Y-12681031D02*
X17303515Y-12700079D01*
X17303515Y-12700079D02*
X17303515Y-12709603D01*
X17303515Y-12709603D02*
X17293991Y-12728650D01*
X17293991Y-12728650D02*
X17284468Y-12738174D01*
X17284468Y-12738174D02*
X17265420Y-12747698D01*
X17265420Y-12747698D02*
X17227325Y-12747698D01*
X17227325Y-12747698D02*
X17208277Y-12757222D01*
X17208277Y-12757222D02*
X17198753Y-12766746D01*
X17198753Y-12766746D02*
X17189230Y-12785793D01*
X17189230Y-12785793D02*
X17189230Y-12823888D01*
X17189230Y-12823888D02*
X17198753Y-12842936D01*
X17198753Y-12842936D02*
X17208277Y-12852460D01*
X17208277Y-12852460D02*
X17227325Y-12861984D01*
X17227325Y-12861984D02*
X17265420Y-12861984D01*
X17265420Y-12861984D02*
X17284468Y-12852460D01*
X17284468Y-12852460D02*
X17293991Y-12842936D01*
X17293991Y-12842936D02*
X17303515Y-12823888D01*
X17303515Y-12823888D02*
X17303515Y-12785793D01*
X17303515Y-12785793D02*
X17293991Y-12766746D01*
X17293991Y-12766746D02*
X17284468Y-12757222D01*
X17284468Y-12757222D02*
X17265420Y-12747698D01*
X17541611Y-12861984D02*
X17541611Y-12661984D01*
X17627325Y-12861984D02*
X17627325Y-12757222D01*
X17627325Y-12757222D02*
X17617801Y-12738174D01*
X17617801Y-12738174D02*
X17598753Y-12728650D01*
X17598753Y-12728650D02*
X17570182Y-12728650D01*
X17570182Y-12728650D02*
X17551134Y-12738174D01*
X17551134Y-12738174D02*
X17541611Y-12747698D01*
X17751134Y-12861984D02*
X17732087Y-12852460D01*
X17732087Y-12852460D02*
X17722563Y-12842936D01*
X17722563Y-12842936D02*
X17713039Y-12823888D01*
X17713039Y-12823888D02*
X17713039Y-12766746D01*
X17713039Y-12766746D02*
X17722563Y-12747698D01*
X17722563Y-12747698D02*
X17732087Y-12738174D01*
X17732087Y-12738174D02*
X17751134Y-12728650D01*
X17751134Y-12728650D02*
X17779706Y-12728650D01*
X17779706Y-12728650D02*
X17798753Y-12738174D01*
X17798753Y-12738174D02*
X17808277Y-12747698D01*
X17808277Y-12747698D02*
X17817801Y-12766746D01*
X17817801Y-12766746D02*
X17817801Y-12823888D01*
X17817801Y-12823888D02*
X17808277Y-12842936D01*
X17808277Y-12842936D02*
X17798753Y-12852460D01*
X17798753Y-12852460D02*
X17779706Y-12861984D01*
X17779706Y-12861984D02*
X17751134Y-12861984D01*
X17932087Y-12861984D02*
X17913039Y-12852460D01*
X17913039Y-12852460D02*
X17903515Y-12833412D01*
X17903515Y-12833412D02*
X17903515Y-12661984D01*
X18084468Y-12852460D02*
X18065420Y-12861984D01*
X18065420Y-12861984D02*
X18027325Y-12861984D01*
X18027325Y-12861984D02*
X18008277Y-12852460D01*
X18008277Y-12852460D02*
X17998753Y-12833412D01*
X17998753Y-12833412D02*
X17998753Y-12757222D01*
X17998753Y-12757222D02*
X18008277Y-12738174D01*
X18008277Y-12738174D02*
X18027325Y-12728650D01*
X18027325Y-12728650D02*
X18065420Y-12728650D01*
X18065420Y-12728650D02*
X18084468Y-12738174D01*
X18084468Y-12738174D02*
X18093992Y-12757222D01*
X18093992Y-12757222D02*
X18093992Y-12776269D01*
X18093992Y-12776269D02*
X17998753Y-12795317D01*
X18170182Y-12852460D02*
X18189230Y-12861984D01*
X18189230Y-12861984D02*
X18227325Y-12861984D01*
X18227325Y-12861984D02*
X18246373Y-12852460D01*
X18246373Y-12852460D02*
X18255896Y-12833412D01*
X18255896Y-12833412D02*
X18255896Y-12823888D01*
X18255896Y-12823888D02*
X18246373Y-12804841D01*
X18246373Y-12804841D02*
X18227325Y-12795317D01*
X18227325Y-12795317D02*
X18198753Y-12795317D01*
X18198753Y-12795317D02*
X18179706Y-12785793D01*
X18179706Y-12785793D02*
X18170182Y-12766746D01*
X18170182Y-12766746D02*
X18170182Y-12757222D01*
X18170182Y-12757222D02*
X18179706Y-12738174D01*
X18179706Y-12738174D02*
X18198753Y-12728650D01*
X18198753Y-12728650D02*
X18227325Y-12728650D01*
X18227325Y-12728650D02*
X18246373Y-12738174D01*
X18322563Y-12938174D02*
X18332087Y-12928650D01*
X18332087Y-12928650D02*
X18351134Y-12900079D01*
X18351134Y-12900079D02*
X18360658Y-12881031D01*
X18360658Y-12881031D02*
X18370182Y-12852460D01*
X18370182Y-12852460D02*
X18379706Y-12804841D01*
X18379706Y-12804841D02*
X18379706Y-12766746D01*
X18379706Y-12766746D02*
X18370182Y-12719127D01*
X18370182Y-12719127D02*
X18360658Y-12690555D01*
X18360658Y-12690555D02*
X18351134Y-12671508D01*
X18351134Y-12671508D02*
X18332087Y-12642936D01*
X18332087Y-12642936D02*
X18322563Y-12633412D01*
D13*
X13531391Y-13073391D02*
X13531391Y-12995609D01*
X13453609Y-12995609D01*
X13453609Y-13073391D01*
X13531391Y-13073391D01*
D11*
X13913039Y-13125984D02*
X13798753Y-13125984D01*
X13855896Y-13125984D02*
X13855896Y-12925984D01*
X13855896Y-12925984D02*
X13836848Y-12954555D01*
X13836848Y-12954555D02*
X13817801Y-12973603D01*
X13817801Y-12973603D02*
X13798753Y-12983127D01*
X13998753Y-13106936D02*
X14008277Y-13116460D01*
X14008277Y-13116460D02*
X13998753Y-13125984D01*
X13998753Y-13125984D02*
X13989229Y-13116460D01*
X13989229Y-13116460D02*
X13998753Y-13106936D01*
X13998753Y-13106936D02*
X13998753Y-13125984D01*
X14198753Y-13125984D02*
X14084467Y-13125984D01*
X14141610Y-13125984D02*
X14141610Y-12925984D01*
X14141610Y-12925984D02*
X14122562Y-12954555D01*
X14122562Y-12954555D02*
X14103515Y-12973603D01*
X14103515Y-12973603D02*
X14084467Y-12983127D01*
X14322562Y-12925984D02*
X14341610Y-12925984D01*
X14341610Y-12925984D02*
X14360658Y-12935508D01*
X14360658Y-12935508D02*
X14370182Y-12945031D01*
X14370182Y-12945031D02*
X14379705Y-12964079D01*
X14379705Y-12964079D02*
X14389229Y-13002174D01*
X14389229Y-13002174D02*
X14389229Y-13049793D01*
X14389229Y-13049793D02*
X14379705Y-13087888D01*
X14379705Y-13087888D02*
X14370182Y-13106936D01*
X14370182Y-13106936D02*
X14360658Y-13116460D01*
X14360658Y-13116460D02*
X14341610Y-13125984D01*
X14341610Y-13125984D02*
X14322562Y-13125984D01*
X14322562Y-13125984D02*
X14303515Y-13116460D01*
X14303515Y-13116460D02*
X14293991Y-13106936D01*
X14293991Y-13106936D02*
X14284467Y-13087888D01*
X14284467Y-13087888D02*
X14274943Y-13049793D01*
X14274943Y-13049793D02*
X14274943Y-13002174D01*
X14274943Y-13002174D02*
X14284467Y-12964079D01*
X14284467Y-12964079D02*
X14293991Y-12945031D01*
X14293991Y-12945031D02*
X14303515Y-12935508D01*
X14303515Y-12935508D02*
X14322562Y-12925984D01*
X14513039Y-12925984D02*
X14532086Y-12925984D01*
X14532086Y-12925984D02*
X14551134Y-12935508D01*
X14551134Y-12935508D02*
X14560658Y-12945031D01*
X14560658Y-12945031D02*
X14570182Y-12964079D01*
X14570182Y-12964079D02*
X14579705Y-13002174D01*
X14579705Y-13002174D02*
X14579705Y-13049793D01*
X14579705Y-13049793D02*
X14570182Y-13087888D01*
X14570182Y-13087888D02*
X14560658Y-13106936D01*
X14560658Y-13106936D02*
X14551134Y-13116460D01*
X14551134Y-13116460D02*
X14532086Y-13125984D01*
X14532086Y-13125984D02*
X14513039Y-13125984D01*
X14513039Y-13125984D02*
X14493991Y-13116460D01*
X14493991Y-13116460D02*
X14484467Y-13106936D01*
X14484467Y-13106936D02*
X14474943Y-13087888D01*
X14474943Y-13087888D02*
X14465420Y-13049793D01*
X14465420Y-13049793D02*
X14465420Y-13002174D01*
X14465420Y-13002174D02*
X14474943Y-12964079D01*
X14474943Y-12964079D02*
X14484467Y-12945031D01*
X14484467Y-12945031D02*
X14493991Y-12935508D01*
X14493991Y-12935508D02*
X14513039Y-12925984D01*
X14665420Y-13125984D02*
X14665420Y-12992650D01*
X14665420Y-13011698D02*
X14674943Y-13002174D01*
X14674943Y-13002174D02*
X14693991Y-12992650D01*
X14693991Y-12992650D02*
X14722563Y-12992650D01*
X14722563Y-12992650D02*
X14741610Y-13002174D01*
X14741610Y-13002174D02*
X14751134Y-13021222D01*
X14751134Y-13021222D02*
X14751134Y-13125984D01*
X14751134Y-13021222D02*
X14760658Y-13002174D01*
X14760658Y-13002174D02*
X14779705Y-12992650D01*
X14779705Y-12992650D02*
X14808277Y-12992650D01*
X14808277Y-12992650D02*
X14827324Y-13002174D01*
X14827324Y-13002174D02*
X14836848Y-13021222D01*
X14836848Y-13021222D02*
X14836848Y-13125984D01*
X14932086Y-13125984D02*
X14932086Y-12992650D01*
X14932086Y-13011698D02*
X14941610Y-13002174D01*
X14941610Y-13002174D02*
X14960658Y-12992650D01*
X14960658Y-12992650D02*
X14989229Y-12992650D01*
X14989229Y-12992650D02*
X15008277Y-13002174D01*
X15008277Y-13002174D02*
X15017801Y-13021222D01*
X15017801Y-13021222D02*
X15017801Y-13125984D01*
X15017801Y-13021222D02*
X15027324Y-13002174D01*
X15027324Y-13002174D02*
X15046372Y-12992650D01*
X15046372Y-12992650D02*
X15074943Y-12992650D01*
X15074943Y-12992650D02*
X15093991Y-13002174D01*
X15093991Y-13002174D02*
X15103515Y-13021222D01*
X15103515Y-13021222D02*
X15103515Y-13125984D01*
X15493991Y-12916460D02*
X15322563Y-13173603D01*
X15751134Y-12925984D02*
X15770182Y-12925984D01*
X15770182Y-12925984D02*
X15789229Y-12935508D01*
X15789229Y-12935508D02*
X15798753Y-12945031D01*
X15798753Y-12945031D02*
X15808277Y-12964079D01*
X15808277Y-12964079D02*
X15817801Y-13002174D01*
X15817801Y-13002174D02*
X15817801Y-13049793D01*
X15817801Y-13049793D02*
X15808277Y-13087888D01*
X15808277Y-13087888D02*
X15798753Y-13106936D01*
X15798753Y-13106936D02*
X15789229Y-13116460D01*
X15789229Y-13116460D02*
X15770182Y-13125984D01*
X15770182Y-13125984D02*
X15751134Y-13125984D01*
X15751134Y-13125984D02*
X15732086Y-13116460D01*
X15732086Y-13116460D02*
X15722563Y-13106936D01*
X15722563Y-13106936D02*
X15713039Y-13087888D01*
X15713039Y-13087888D02*
X15703515Y-13049793D01*
X15703515Y-13049793D02*
X15703515Y-13002174D01*
X15703515Y-13002174D02*
X15713039Y-12964079D01*
X15713039Y-12964079D02*
X15722563Y-12945031D01*
X15722563Y-12945031D02*
X15732086Y-12935508D01*
X15732086Y-12935508D02*
X15751134Y-12925984D01*
X15903515Y-13106936D02*
X15913039Y-13116460D01*
X15913039Y-13116460D02*
X15903515Y-13125984D01*
X15903515Y-13125984D02*
X15893991Y-13116460D01*
X15893991Y-13116460D02*
X15903515Y-13106936D01*
X15903515Y-13106936D02*
X15903515Y-13125984D01*
X16036848Y-12925984D02*
X16055896Y-12925984D01*
X16055896Y-12925984D02*
X16074944Y-12935508D01*
X16074944Y-12935508D02*
X16084467Y-12945031D01*
X16084467Y-12945031D02*
X16093991Y-12964079D01*
X16093991Y-12964079D02*
X16103515Y-13002174D01*
X16103515Y-13002174D02*
X16103515Y-13049793D01*
X16103515Y-13049793D02*
X16093991Y-13087888D01*
X16093991Y-13087888D02*
X16084467Y-13106936D01*
X16084467Y-13106936D02*
X16074944Y-13116460D01*
X16074944Y-13116460D02*
X16055896Y-13125984D01*
X16055896Y-13125984D02*
X16036848Y-13125984D01*
X16036848Y-13125984D02*
X16017801Y-13116460D01*
X16017801Y-13116460D02*
X16008277Y-13106936D01*
X16008277Y-13106936D02*
X15998753Y-13087888D01*
X15998753Y-13087888D02*
X15989229Y-13049793D01*
X15989229Y-13049793D02*
X15989229Y-13002174D01*
X15989229Y-13002174D02*
X15998753Y-12964079D01*
X15998753Y-12964079D02*
X16008277Y-12945031D01*
X16008277Y-12945031D02*
X16017801Y-12935508D01*
X16017801Y-12935508D02*
X16036848Y-12925984D01*
X16274944Y-12992650D02*
X16274944Y-13125984D01*
X16227325Y-12916460D02*
X16179706Y-13059317D01*
X16179706Y-13059317D02*
X16303515Y-13059317D01*
X16360658Y-12925984D02*
X16484467Y-12925984D01*
X16484467Y-12925984D02*
X16417801Y-13002174D01*
X16417801Y-13002174D02*
X16446372Y-13002174D01*
X16446372Y-13002174D02*
X16465420Y-13011698D01*
X16465420Y-13011698D02*
X16474944Y-13021222D01*
X16474944Y-13021222D02*
X16484467Y-13040269D01*
X16484467Y-13040269D02*
X16484467Y-13087888D01*
X16484467Y-13087888D02*
X16474944Y-13106936D01*
X16474944Y-13106936D02*
X16465420Y-13116460D01*
X16465420Y-13116460D02*
X16446372Y-13125984D01*
X16446372Y-13125984D02*
X16389229Y-13125984D01*
X16389229Y-13125984D02*
X16370182Y-13116460D01*
X16370182Y-13116460D02*
X16360658Y-13106936D01*
X16551134Y-12925984D02*
X16674944Y-12925984D01*
X16674944Y-12925984D02*
X16608277Y-13002174D01*
X16608277Y-13002174D02*
X16636848Y-13002174D01*
X16636848Y-13002174D02*
X16655896Y-13011698D01*
X16655896Y-13011698D02*
X16665420Y-13021222D01*
X16665420Y-13021222D02*
X16674944Y-13040269D01*
X16674944Y-13040269D02*
X16674944Y-13087888D01*
X16674944Y-13087888D02*
X16665420Y-13106936D01*
X16665420Y-13106936D02*
X16655896Y-13116460D01*
X16655896Y-13116460D02*
X16636848Y-13125984D01*
X16636848Y-13125984D02*
X16579706Y-13125984D01*
X16579706Y-13125984D02*
X16560658Y-13116460D01*
X16560658Y-13116460D02*
X16551134Y-13106936D01*
X16751134Y-12925984D02*
X16751134Y-12964079D01*
X16827325Y-12925984D02*
X16827325Y-12964079D01*
X17122563Y-13202174D02*
X17113039Y-13192650D01*
X17113039Y-13192650D02*
X17093991Y-13164079D01*
X17093991Y-13164079D02*
X17084468Y-13145031D01*
X17084468Y-13145031D02*
X17074944Y-13116460D01*
X17074944Y-13116460D02*
X17065420Y-13068841D01*
X17065420Y-13068841D02*
X17065420Y-13030746D01*
X17065420Y-13030746D02*
X17074944Y-12983127D01*
X17074944Y-12983127D02*
X17084468Y-12954555D01*
X17084468Y-12954555D02*
X17093991Y-12935508D01*
X17093991Y-12935508D02*
X17113039Y-12906936D01*
X17113039Y-12906936D02*
X17122563Y-12897412D01*
X17284468Y-12992650D02*
X17284468Y-13125984D01*
X17236849Y-12916460D02*
X17189230Y-13059317D01*
X17189230Y-13059317D02*
X17313039Y-13059317D01*
X17541611Y-13125984D02*
X17541611Y-12925984D01*
X17627325Y-13125984D02*
X17627325Y-13021222D01*
X17627325Y-13021222D02*
X17617801Y-13002174D01*
X17617801Y-13002174D02*
X17598753Y-12992650D01*
X17598753Y-12992650D02*
X17570182Y-12992650D01*
X17570182Y-12992650D02*
X17551134Y-13002174D01*
X17551134Y-13002174D02*
X17541611Y-13011698D01*
X17751134Y-13125984D02*
X17732087Y-13116460D01*
X17732087Y-13116460D02*
X17722563Y-13106936D01*
X17722563Y-13106936D02*
X17713039Y-13087888D01*
X17713039Y-13087888D02*
X17713039Y-13030746D01*
X17713039Y-13030746D02*
X17722563Y-13011698D01*
X17722563Y-13011698D02*
X17732087Y-13002174D01*
X17732087Y-13002174D02*
X17751134Y-12992650D01*
X17751134Y-12992650D02*
X17779706Y-12992650D01*
X17779706Y-12992650D02*
X17798753Y-13002174D01*
X17798753Y-13002174D02*
X17808277Y-13011698D01*
X17808277Y-13011698D02*
X17817801Y-13030746D01*
X17817801Y-13030746D02*
X17817801Y-13087888D01*
X17817801Y-13087888D02*
X17808277Y-13106936D01*
X17808277Y-13106936D02*
X17798753Y-13116460D01*
X17798753Y-13116460D02*
X17779706Y-13125984D01*
X17779706Y-13125984D02*
X17751134Y-13125984D01*
X17932087Y-13125984D02*
X17913039Y-13116460D01*
X17913039Y-13116460D02*
X17903515Y-13097412D01*
X17903515Y-13097412D02*
X17903515Y-12925984D01*
X18084468Y-13116460D02*
X18065420Y-13125984D01*
X18065420Y-13125984D02*
X18027325Y-13125984D01*
X18027325Y-13125984D02*
X18008277Y-13116460D01*
X18008277Y-13116460D02*
X17998753Y-13097412D01*
X17998753Y-13097412D02*
X17998753Y-13021222D01*
X17998753Y-13021222D02*
X18008277Y-13002174D01*
X18008277Y-13002174D02*
X18027325Y-12992650D01*
X18027325Y-12992650D02*
X18065420Y-12992650D01*
X18065420Y-12992650D02*
X18084468Y-13002174D01*
X18084468Y-13002174D02*
X18093992Y-13021222D01*
X18093992Y-13021222D02*
X18093992Y-13040269D01*
X18093992Y-13040269D02*
X17998753Y-13059317D01*
X18170182Y-13116460D02*
X18189230Y-13125984D01*
X18189230Y-13125984D02*
X18227325Y-13125984D01*
X18227325Y-13125984D02*
X18246373Y-13116460D01*
X18246373Y-13116460D02*
X18255896Y-13097412D01*
X18255896Y-13097412D02*
X18255896Y-13087888D01*
X18255896Y-13087888D02*
X18246373Y-13068841D01*
X18246373Y-13068841D02*
X18227325Y-13059317D01*
X18227325Y-13059317D02*
X18198753Y-13059317D01*
X18198753Y-13059317D02*
X18179706Y-13049793D01*
X18179706Y-13049793D02*
X18170182Y-13030746D01*
X18170182Y-13030746D02*
X18170182Y-13021222D01*
X18170182Y-13021222D02*
X18179706Y-13002174D01*
X18179706Y-13002174D02*
X18198753Y-12992650D01*
X18198753Y-12992650D02*
X18227325Y-12992650D01*
X18227325Y-12992650D02*
X18246373Y-13002174D01*
X18322563Y-13202174D02*
X18332087Y-13192650D01*
X18332087Y-13192650D02*
X18351134Y-13164079D01*
X18351134Y-13164079D02*
X18360658Y-13145031D01*
X18360658Y-13145031D02*
X18370182Y-13116460D01*
X18370182Y-13116460D02*
X18379706Y-13068841D01*
X18379706Y-13068841D02*
X18379706Y-13030746D01*
X18379706Y-13030746D02*
X18370182Y-12983127D01*
X18370182Y-12983127D02*
X18360658Y-12954555D01*
X18360658Y-12954555D02*
X18351134Y-12935508D01*
X18351134Y-12935508D02*
X18332087Y-12906936D01*
X18332087Y-12906936D02*
X18322563Y-12897412D01*
M02*
