%TF.GenerationSoftware,KiCad,Pcbnew,9.0.2*%
%TF.CreationDate,2025-06-29T23:08:07-05:00*%
%TF.ProjectId,project-solder,70726f6a-6563-4742-9d73-6f6c6465722e,rev?*%
%TF.SameCoordinates,Original*%
%TF.FileFunction,Drillmap*%
%TF.FilePolarity,Positive*%
%FSLAX45Y45*%
G04 Gerber Fmt 4.5, Leading zero omitted, Abs format (unit mm)*
G04 Created by KiCad (PCBNEW 9.0.2) date 2025-06-29 23:08:07*
%MOMM*%
%LPD*%
G01*
G04 APERTURE LIST*
%ADD10C,0.050000*%
%ADD11C,0.200000*%
G04 APERTURE END LIST*
D10*
X20350000Y-6250000D02*
X20650000Y-6350000D01*
X20700000Y-6550000D01*
X20700000Y-8200000D01*
X22150000Y-8200000D01*
X24000000Y-7200000D01*
X23150000Y-11300000D01*
X23000000Y-11450000D01*
X22750000Y-11600000D01*
X16850000Y-11600000D01*
X16400000Y-11450000D01*
X16150000Y-11200000D01*
X13550000Y-7100000D01*
X15550000Y-7150000D01*
X16250000Y-8200000D01*
X17000000Y-8200000D01*
X16950000Y-6450000D01*
X17100000Y-6250000D01*
X17500000Y-6200000D01*
X20350000Y-6250000D01*
D11*
X13808277Y-11913984D02*
X13808277Y-11713984D01*
X13808277Y-11713984D02*
X13855896Y-11713984D01*
X13855896Y-11713984D02*
X13884467Y-11723508D01*
X13884467Y-11723508D02*
X13903515Y-11742555D01*
X13903515Y-11742555D02*
X13913039Y-11761603D01*
X13913039Y-11761603D02*
X13922562Y-11799698D01*
X13922562Y-11799698D02*
X13922562Y-11828269D01*
X13922562Y-11828269D02*
X13913039Y-11866365D01*
X13913039Y-11866365D02*
X13903515Y-11885412D01*
X13903515Y-11885412D02*
X13884467Y-11904460D01*
X13884467Y-11904460D02*
X13855896Y-11913984D01*
X13855896Y-11913984D02*
X13808277Y-11913984D01*
X14008277Y-11913984D02*
X14008277Y-11780650D01*
X14008277Y-11818746D02*
X14017801Y-11799698D01*
X14017801Y-11799698D02*
X14027324Y-11790174D01*
X14027324Y-11790174D02*
X14046372Y-11780650D01*
X14046372Y-11780650D02*
X14065420Y-11780650D01*
X14132086Y-11913984D02*
X14132086Y-11780650D01*
X14132086Y-11713984D02*
X14122562Y-11723508D01*
X14122562Y-11723508D02*
X14132086Y-11733031D01*
X14132086Y-11733031D02*
X14141610Y-11723508D01*
X14141610Y-11723508D02*
X14132086Y-11713984D01*
X14132086Y-11713984D02*
X14132086Y-11733031D01*
X14255896Y-11913984D02*
X14236848Y-11904460D01*
X14236848Y-11904460D02*
X14227324Y-11885412D01*
X14227324Y-11885412D02*
X14227324Y-11713984D01*
X14360658Y-11913984D02*
X14341610Y-11904460D01*
X14341610Y-11904460D02*
X14332086Y-11885412D01*
X14332086Y-11885412D02*
X14332086Y-11713984D01*
X14589229Y-11913984D02*
X14589229Y-11713984D01*
X14589229Y-11713984D02*
X14655896Y-11856841D01*
X14655896Y-11856841D02*
X14722562Y-11713984D01*
X14722562Y-11713984D02*
X14722562Y-11913984D01*
X14903515Y-11913984D02*
X14903515Y-11809222D01*
X14903515Y-11809222D02*
X14893991Y-11790174D01*
X14893991Y-11790174D02*
X14874943Y-11780650D01*
X14874943Y-11780650D02*
X14836848Y-11780650D01*
X14836848Y-11780650D02*
X14817801Y-11790174D01*
X14903515Y-11904460D02*
X14884467Y-11913984D01*
X14884467Y-11913984D02*
X14836848Y-11913984D01*
X14836848Y-11913984D02*
X14817801Y-11904460D01*
X14817801Y-11904460D02*
X14808277Y-11885412D01*
X14808277Y-11885412D02*
X14808277Y-11866365D01*
X14808277Y-11866365D02*
X14817801Y-11847317D01*
X14817801Y-11847317D02*
X14836848Y-11837793D01*
X14836848Y-11837793D02*
X14884467Y-11837793D01*
X14884467Y-11837793D02*
X14903515Y-11828269D01*
X14998753Y-11780650D02*
X14998753Y-11980650D01*
X14998753Y-11790174D02*
X15017801Y-11780650D01*
X15017801Y-11780650D02*
X15055896Y-11780650D01*
X15055896Y-11780650D02*
X15074943Y-11790174D01*
X15074943Y-11790174D02*
X15084467Y-11799698D01*
X15084467Y-11799698D02*
X15093991Y-11818746D01*
X15093991Y-11818746D02*
X15093991Y-11875888D01*
X15093991Y-11875888D02*
X15084467Y-11894936D01*
X15084467Y-11894936D02*
X15074943Y-11904460D01*
X15074943Y-11904460D02*
X15055896Y-11913984D01*
X15055896Y-11913984D02*
X15017801Y-11913984D01*
X15017801Y-11913984D02*
X14998753Y-11904460D01*
X15179705Y-11894936D02*
X15189229Y-11904460D01*
X15189229Y-11904460D02*
X15179705Y-11913984D01*
X15179705Y-11913984D02*
X15170182Y-11904460D01*
X15170182Y-11904460D02*
X15179705Y-11894936D01*
X15179705Y-11894936D02*
X15179705Y-11913984D01*
X15179705Y-11790174D02*
X15189229Y-11799698D01*
X15189229Y-11799698D02*
X15179705Y-11809222D01*
X15179705Y-11809222D02*
X15170182Y-11799698D01*
X15170182Y-11799698D02*
X15179705Y-11790174D01*
X15179705Y-11790174D02*
X15179705Y-11809222D01*
M02*
